<?xml version="1.0" encoding="UTF-8" standalone="no"?>
<!-- Created with Inkscape (http://www.inkscape.org/) -->

<svg
   width="11.767111mm"
   height="23.642534mm"
   viewBox="0 0 11.767111 23.642534"
   version="1.1"
   id="svg1"
   inkscape:version="1.3 (0e150ed6c4, 2023-07-21)"
   sodipodi:docname="dibujo-1.svg"
   xmlns:inkscape="http://www.inkscape.org/namespaces/inkscape"
   xmlns:sodipodi="http://sodipodi.sourceforge.net/DTD/sodipodi-0.dtd"
   xmlns="http://www.w3.org/2000/svg"
   xmlns:svg="http://www.w3.org/2000/svg">
  <sodipodi:namedview
     id="namedview1"
     pagecolor="#ffffff"
     bordercolor="#000000"
     borderopacity="0.25"
     inkscape:showpageshadow="2"
     inkscape:pageopacity="0.0"
     inkscape:pagecheckerboard="0"
     inkscape:deskcolor="#d1d1d1"
     inkscape:document-units="mm"
     inkscape:zoom="0.70710685"
     inkscape:cx="199.40409"
     inkscape:cy="649.83107"
     inkscape:window-width="1920"
     inkscape:window-height="1017"
     inkscape:window-x="-8"
     inkscape:window-y="-8"
     inkscape:window-maximized="1"
     inkscape:current-layer="layer1" />
  <defs
     id="defs1" />
  <g
     inkscape:label="Capa 1"
     inkscape:groupmode="layer"
     id="layer1"
     transform="translate(-268.44654,215.40611)">
    <path
       id="rect49"
       style="fill:none;stroke:#ffffff;stroke-width:1.00115;stroke-dasharray:none;stroke-opacity:1"
       d="m 252.10244,-214.90575 v 0.0119 h -5.97379 c -2.63482,0 -4.75579,2.122 -4.75579,4.75682 v 13.10566 c 0,2.63481 2.12097,4.75578 4.75579,4.75578 h 5.97379 v 0.0114 h 16.8615 v -0.009 h 5.98362 c 2.63549,0 4.75681,-2.12133 4.75681,-4.75681 v -13.10928 c 0,-2.6355 -2.12132,-4.75785 -4.75681,-4.75785 h -5.98362 v -0.009 z" />
    <path
       id="path42"
       style="fill:none;fill-opacity:1;stroke:#ffffff;stroke-width:1.01872;stroke-dasharray:none;stroke-opacity:0"
       d="m 268.9559,-214.89676 v 22.62382 h 5.99145 c 2.63549,0 4.75695,-2.12145 4.75695,-4.75694 v -13.10907 c 0,-2.6355 -2.12146,-4.75781 -4.75695,-4.75781 z"
       inkscape:export-filename="src\main\resources\textures\variable\stringend.svg"
       inkscape:export-xdpi="96"
       inkscape:export-ydpi="96" />
    <path
       style="fill:none;stroke:#ffffff;stroke-width:1;stroke-opacity:1"
       d="m 270.79763,-207.01905 3.53248,6.11841 3.53245,-6.11841"
       id="path49" />
  </g>
</svg>
