<?xml version="1.0" encoding="UTF-8" standalone="no"?>
<!-- Created with Inkscape (http://www.inkscape.org/) -->

<svg
   width="210mm"
   height="297mm"
   viewBox="0 0 210 297"
   version="1.1"
   id="svg1"
   inkscape:version="1.3 (0e150ed6c4, 2023-07-21)"
   sodipodi:docname="dibujo-1.svg"
   xmlns:inkscape="http://www.inkscape.org/namespaces/inkscape"
   xmlns:sodipodi="http://sodipodi.sourceforge.net/DTD/sodipodi-0.dtd"
   xmlns="http://www.w3.org/2000/svg"
   xmlns:svg="http://www.w3.org/2000/svg">
  <sodipodi:namedview
     id="namedview1"
     pagecolor="#ffffff"
     bordercolor="#000000"
     borderopacity="0.25"
     inkscape:showpageshadow="2"
     inkscape:pageopacity="0.0"
     inkscape:pagecheckerboard="0"
     inkscape:deskcolor="#d1d1d1"
     inkscape:document-units="mm"
     inkscape:zoom="2.0000002"
     inkscape:cx="958.99991"
     inkscape:cy="201.24998"
     inkscape:window-width="1920"
     inkscape:window-height="1001"
     inkscape:window-x="-9"
     inkscape:window-y="-9"
     inkscape:window-maximized="1"
     inkscape:current-layer="layer1" />
  <defs
     id="defs1" />
  <g
     inkscape:label="Capa 1"
     inkscape:groupmode="layer"
     id="layer1">
    <path
       id="path27"
       style="fill:#4ca742;fill-opacity:1;stroke:#ffffff;stroke-width:1;stroke-dasharray:none;stroke-opacity:1"
       d="m 278.8858,26.750213 5.83959,5.83959 v 0 c 1.20613,1.22528 1.88282,2.99454 1.88434,4.71384 -0.001,1.71961 -0.67801,3.36989 -1.88434,4.59536 v 0 l -5.83959,5.95811 z"
       sodipodi:nodetypes="cccccccc"
       inkscape:export-filename="src\main\resources\textures\operator\conditional_end.svg"
       inkscape:export-xdpi="96"
       inkscape:export-ydpi="96" />
    <path
       id="path41"
       style="fill:#4ca742;fill-opacity:1;stroke:#ffffff;stroke-width:1;stroke-dasharray:none;stroke-opacity:1"
       d="m 251.70244,26.042245 -0.99942,0.707967 -5.83943,5.839438 c -1.20613,1.225275 -1.88261,2.994625 -1.88413,4.713923 0.001,1.719607 0.6778,3.3696 1.88413,4.595069 l 5.83943,5.958293 0.99942,0.72502 h 26.47746 l 0.7059,-0.72502 5.83944,-5.958293 c 1.20632,-1.225469 1.88363,-2.87546 1.88463,-4.595068 -0.002,-1.719299 -0.67851,-3.488646 -1.88463,-4.713924 l -5.83944,-5.839437 -0.71004,-0.707967 z" />
    <path
       id="path40"
       style="fill:#4ca742;fill-opacity:1;stroke:#ffffff;stroke-width:1;stroke-dasharray:none;stroke-opacity:1"
       d="m 250.70304,26.749921 -5.83959,5.83959 v 0 c -1.20613,1.22528 -1.88282,2.99454 -1.88434,4.71384 0.001,1.71961 0.67801,3.36989 1.88434,4.59536 v 0 l 5.83959,5.95811 z"
       sodipodi:nodetypes="cccccccc"
       inkscape:export-filename="src\main\resources\textures\operator\conditional_start.svg"
       inkscape:export-xdpi="96"
       inkscape:export-ydpi="96" />
    <path
       id="path34"
       style="fill:#ffda22;fill-opacity:1;stroke:#ffffff;stroke-width:1;stroke-opacity:1"
       d="m -263.17317,180.58411 -0.0248,0.0248 c 0,6.61326 0.0357,2.96351 0.0357,6.72672 v 8.98085 0.076 c 0,3.76323 3.02964,6.79286 6.79286,6.79286 h 1.50998 v 2.6231 c 0,3.76322 3.02962,6.79287 6.79287,6.79287 h 4.15116 c 3.76325,0 6.79287,-3.02965 6.79287,-6.79287 v -2.55695 h 3.68195 1.50998 17.7369 6.60425 v -22.64255 h -6.60425 c -16.32649,0.006 -32.65296,-0.0118 -48.97943,-0.0248 z"
       sodipodi:nodetypes="ccscsscsssscccccccc"
       inkscape:export-filename="src\main\resources\textures\capsule\end_body_conn.svg"
       inkscape:export-xdpi="96"
       inkscape:export-ydpi="96" />
    <path
       id="path32"
       style="fill:#00ff00;fill-opacity:1;stroke:#ffffff;stroke-width:1;stroke-opacity:1"
       d="m 36.983275,33.05277 c -3.76325,0 -6.79287,3.02961 -6.79287,6.79286 v 9.056815 c 0,3.763251 3.02962,6.792867 6.79287,6.792867 h 1.50998 v 2.623096 c 0,3.763249 3.02962,6.792869 6.79287,6.792869 h 4.15117 c 3.76325,0 6.79286,-3.02962 6.79286,-6.792869 V 55.695312 H 178.50176 c 3.76324,0 6.79286,-3.029616 6.79286,-6.792867 V 39.84563 c 0,-3.76325 -3.02962,-6.79286 -6.79286,-6.79286 H 56.230155 v 2.12235 c 0,3.76325 -3.02961,6.79338 -6.79286,6.79338 h -4.15117 c -3.76325,0 -6.79287,-3.03013 -6.79287,-6.79338 v -2.12235 z" />
    <path
       id="path20"
       style="fill:#ffda22;fill-opacity:1;stroke:#ffffff;stroke-width:1;stroke-opacity:1"
       d="m -746.30163,-112.68161 v 2.18902 c 0,3.7632 -3.02967,6.79286 -6.79287,6.79286 h -4.15117 c -3.76325,0 -6.79287,-3.02966 -6.79287,-6.79286 v -2.12287 h -1.50998 c -3.76317,0 -6.79287,3.02966 -6.79287,6.79287 v 4.5284 h 29.89172 v -11.38742 h -0.17002 z"
       inkscape:export-filename="src\main\resources\textures\capsule\start_body_conn.svg"
       inkscape:export-xdpi="96"
       inkscape:export-ydpi="96" />
    <path
       id="path6"
       style="fill:#ffda22;fill-opacity:1;stroke:#ffffff;stroke-width:1;stroke-opacity:1"
       d="m -240.58118,-109.80575 v 0.0662 h -16.13597 c -3.7632,0 -6.79286,3.02963 -6.79286,6.79286 v 9.056813 c 0,3.763231 -0.0357,0.113458 -0.0357,6.726721 l 0.0248,0.02481 v 9.432499 h 22.53971 c -0.004,-0.05457 -0.008,-0.109177 -0.0109,-0.163815 -9e-5,-5.096093 3.9012,-9.293497 8.71368,-9.293489 v 2.623096 c 0,3.763242 3.02962,6.792867 6.79287,6.792867 h 4.15117 c 3.76324,0 6.79286,-3.029625 6.79286,-6.792867 v -2.623096 h 6.60425 v -22.642599 h -6.60425 -17.7369 -1.50998 z" />
    <path
       id="path39"
       style="fill:#ffda22;fill-opacity:1;stroke:#ffffff;stroke-width:1;stroke-opacity:1"
       d="m -237.47035,-109.80575 v 2.18902 c 0,3.76321 -3.02966,6.79286 -6.79287,6.79286 h -4.15116 c -3.76325,0 -6.79287,-3.02965 -6.79287,-6.79286 v -2.12287 h -1.51 c -3.76317,0 -6.79286,3.02966 -6.79286,6.79287 v 4.5284 h 30.87874 24.6941 v -11.38742 h -6.60425 -17.7369 -1.50998 z" />
    <path
       id="path3"
       style="fill:#00ff00;stroke:#ffffff;stroke-width:1;stroke-opacity:1;fill-opacity:1"
       d="M 62.834408 32.606278 L 62.834408 55.248824 L 178.50177 55.248824 L 178.50177 32.606278 L 62.834408 32.606278 z " />
    <path
       id="rect4"
       style="fill:#00ff00;fill-opacity:1;stroke:#ffffff;stroke-width:1;stroke-opacity:1"
       d="M 36.983272 32.606278 C 33.220026 32.606278 30.190405 35.635899 30.190405 39.399146 L 30.190405 48.455957 C 30.190405 52.219204 33.220026 55.248824 36.983272 55.248824 L 38.493258 55.248824 L 38.493258 57.87192 C 38.493258 61.635166 41.522877 64.664787 45.286125 64.664787 L 49.437292 64.664787 C 53.20054 64.664787 56.23016 61.635166 56.23016 57.87192 L 56.23016 55.248824 L 62.834408 55.248824 L 62.834408 32.606278 L 56.23016 32.606278 L 56.23016 34.72863 C 56.23016 38.49188 53.200543 41.522013 49.437292 41.522013 L 45.286125 41.522013 C 41.522874 41.522013 38.493258 38.49188 38.493258 34.72863 L 38.493258 32.606278 L 36.983272 32.606278 z "
       inkscape:export-filename="left.svg"
       inkscape:export-xdpi="96"
       inkscape:export-ydpi="96" />
    <path
       id="path10"
       style="fill:#00ff00;stroke:#ffffff;stroke-width:1;stroke-opacity:1;fill-opacity:1"
       d="m 178.50177,32.606278 v 22.642546 c 3.76322,0 6.79286,-3.029624 6.79286,-6.792867 v -9.056811 c 0,-3.763244 -3.02964,-6.792868 -6.79286,-6.792868 z"
       inkscape:export-filename="right.png"
       inkscape:export-xdpi="96"
       inkscape:export-ydpi="96" />
    <path
       id="path12"
       style="fill:#ffffff;fill-opacity:1;stroke:#ffffff;stroke-width:0.31015;stroke-dasharray:none;stroke-opacity:1"
       d="m 148.47383,-158.11145 a 11.665418,11.665418 0 0 0 -11.66529,11.66531 11.665418,11.665418 0 0 0 11.66529,11.66529 z"
       inkscape:export-filename="src\main\resources\textures\variable\numstart.svg"
       inkscape:export-xdpi="96"
       inkscape:export-ydpi="96" />
    <path
       id="path13"
       style="fill:#ffffff;fill-opacity:1;stroke:#ffffff;stroke-width:0.31015;stroke-dasharray:none;stroke-opacity:1"
       d="m 148.47383,-158.11145 a 11.665413,11.665413 0 0 1 11.66529,11.66531 11.665413,11.665413 0 0 1 -11.66529,11.66529 z"
       inkscape:export-filename="src\main\resources\textures\variable\numend.svg"
       inkscape:export-xdpi="96"
       inkscape:export-ydpi="96" />
    <path
       id="path1"
       style="fill:#4ca742;stroke:#ffffff;stroke-width:1;fill-opacity:1;stroke-dasharray:none"
       d="M 146.38021 88.784762 A 11.300545 11.300545 0 0 0 135.07961 100.08536 A 11.300545 11.300545 0 0 0 146.38021 111.38597 L 146.38021 88.784762 z "
       inkscape:export-filename="src\main\resources\textures\operator\start.svg"
       inkscape:export-xdpi="96"
       inkscape:export-ydpi="96" />
    <path
       id="path2"
       style="fill:#4ca742;fill-opacity:1;stroke:#ffffff;stroke-width:1;stroke-dasharray:none"
       d="m 167.57593,88.784762 a 11.300545,11.300545 0 0 1 11.3006,11.300598 11.300545,11.300545 0 0 1 -11.3006,11.30061 z"
       inkscape:export-filename="src\main\resources\textures\operator\end.svg"
       inkscape:export-xdpi="96"
       inkscape:export-ydpi="96" />
    <path
       id="rect2"
       style="fill:#4ca742;fill-opacity:1;stroke:#ffffff;stroke-width:1;stroke-dasharray:none"
       d="m 146.38032,88.784762 a 11.300545,11.300545 0 0 0 -11.3006,11.300598 11.300545,11.300545 0 0 0 11.3006,11.30061 h 21.19561 a 11.300545,11.300545 0 0 0 11.3006,-11.30061 11.300545,11.300545 0 0 0 -11.3006,-11.300598 z" />
    <path
       id="rect3"
       style="fill:#ffffff;fill-opacity:1;stroke:#ffffff;stroke-width:1.02446;stroke-dasharray:none"
       d="m 126.74447,-207.48556 c -2.63482,0 -4.75574,2.12177 -4.75574,4.75659 v 13.10576 c 0,2.63482 2.12092,4.75573 4.75574,4.75573 h 5.98907 v -22.61808 z"
       inkscape:export-filename="src\main\resources\textures\variable\stringstart.svg"
       inkscape:export-xdpi="96"
       inkscape:export-ydpi="96" />
    <path
       id="rect7"
       style="fill:#ffffff;fill-opacity:1;stroke:#ffffff;stroke-width:1.01872;stroke-dasharray:none"
       d="m 133.75513,-207.48843 v 22.62382 h 5.99145 c 2.63549,0 4.75695,-2.12145 4.75695,-4.75694 v -13.10907 c 0,-2.6355 -2.12146,-4.75781 -4.75695,-4.75781 z"
       inkscape:export-filename="src\main\resources\textures\variable\stringend.svg"
       inkscape:export-xdpi="96"
       inkscape:export-ydpi="96" />
    <path
       id="path14"
       style="fill:#ffffff;fill-opacity:1;stroke:#ffffff;stroke-width:1.60012;stroke-dasharray:none;stroke-opacity:1"
       d="m 193.95528,-184.09242 -5.47186,5.47186 v 0 c -1.13018,1.14812 -1.76425,2.80596 -1.76567,4.41699 0.001,1.61133 0.63531,3.15767 1.76567,4.30597 v 0.11107 l 5.47186,5.47184 z"
       sodipodi:nodetypes="cccccccc"
       inkscape:export-filename="src\main\resources\textures\variable\booleanstart.svg"
       inkscape:export-xdpi="96"
       inkscape:export-ydpi="96" />
    <path
       id="path15"
       style="fill:#ffffff;fill-opacity:1;stroke:#ffffff;stroke-width:1.04956;stroke-dasharray:none;stroke-opacity:1"
       d="m 195.28012,-184.757 5.83959,5.83959 v 0 c 1.20613,1.22528 1.88282,2.99454 1.88434,4.71384 -0.001,1.71961 -0.67801,3.36989 -1.88434,4.59536 v 0.11852 l -5.83959,5.83959 z"
       sodipodi:nodetypes="cccccccc"
       inkscape:export-filename="src\main\resources\textures\variable\booleanend.svg"
       inkscape:export-xdpi="96"
       inkscape:export-ydpi="96" />
    <path
       id="path4"
       style="fill:#ffda22;fill-opacity:1;stroke:#ffffff;stroke-width:1;stroke-opacity:1"
       d="m -207.93718,-109.8057 v 22.642546 H -92.269817 V -109.8057 Z" />
    <path
       id="path5"
       style="fill:#ffda22;fill-opacity:1;stroke:#ffffff;stroke-width:1;stroke-opacity:1"
       d="m -92.269817,-109.8057 v 22.642546 c 3.76322,0 6.79286,-3.029624 6.79286,-6.792867 v -9.056809 c 0,-3.76325 -3.02964,-6.79287 -6.79286,-6.79287 z"
       inkscape:export-filename="src\main\resources\textures\capsule\end.svg"
       inkscape:export-xdpi="96"
       inkscape:export-ydpi="96" />
    <path
       id="path8"
       style="fill:#ffda22;fill-opacity:1;stroke:#ffffff;stroke-width:1;stroke-opacity:1;stroke-dasharray:none"
       d="m -240.90059,-77.735036 h -22.55805 V 25.929732 h 22.55805 z" />
    <path
       id="rect1"
       style="fill:#ffda22;fill-opacity:1;stroke:#ffffff;stroke-width:1;stroke-opacity:1"
       d="m -536.47748,-73.87883 v 22.642546 h 22.55831 V -73.87883 Z"
       inkscape:export-filename="src\main\resources\textures\capsule\arm_block.svg"
       inkscape:export-xdpi="96"
       inkscape:export-ydpi="96" />
    <path
       id="path9"
       style="fill:#ffda22;fill-opacity:1;stroke:#ffffff;stroke-width:1;stroke-opacity:1"
       d="m -240.51892,203.25149 v -0.0661 h -16.13597 c -3.7632,0 -6.79285,-3.02964 -6.79285,-6.79287 v -9.05686 c 0,-3.76323 -0.0357,-0.11346 -0.0357,-6.72672 l 0.0248,-0.0248 v -9.4325 h 22.5397 c -0.004,0.0546 -0.008,0.10917 -0.0109,0.16381 -9e-5,5.09609 3.9012,9.2935 8.71369,9.29349 17.7369,0 0,0 17.7369,0 h 6.60425 v 22.64256 h -6.60425 -17.7369 -1.50999 z"
       sodipodi:nodetypes="ccsssccccccccccccc" />
    <path
       id="path11"
       style="fill:#ffda22;fill-opacity:1;stroke:#ffffff;stroke-width:1;stroke-opacity:1"
       d="M -207.875,180.60895 V 203.2515 H -92.20764 V 180.60895 Z" />
    <path
       id="path16"
       style="fill:#ffda22;fill-opacity:1;stroke:#ffffff;stroke-width:1;stroke-opacity:1"
       d="m -92.20764,180.60895 v 22.64255 c 3.76322,0 6.79286,-3.02963 6.79286,-6.79287 v -9.05681 c 0,-3.76325 -3.02964,-6.79287 -6.79286,-6.79287 z"
       inkscape:export-filename="right.png"
       inkscape:export-xdpi="96"
       inkscape:export-ydpi="96" />
    <path
       id="path18"
       style="fill:#ffda22;fill-opacity:1;stroke:#ffffff;stroke-width:1;stroke-opacity:1"
       d="m -207.87495,35.387037 v 22.64254 h 115.66736 v -22.64254 z" />
    <path
       id="path19"
       style="fill:#ffda22;fill-opacity:1;stroke:#ffffff;stroke-width:1;stroke-opacity:1"
       d="m -92.20759,35.387037 v 22.64254 c 3.76322,0 6.79286,-3.02962 6.79286,-6.79286 v -9.05681 c 0,-3.76325 -3.02964,-6.79287 -6.79286,-6.79287 z"
       inkscape:export-filename="right.png"
       inkscape:export-xdpi="96"
       inkscape:export-ydpi="96" />
    <path
       id="path24"
       style="fill:#00ff00;fill-opacity:1;stroke:#ffffff;stroke-width:1;stroke-opacity:1"
       d="m -233.72613,-42.47447 c -3.76325,0 -6.79287,3.02961 -6.79287,6.79286 v 9.056814 c 0,3.763252 3.02962,6.792867 6.79287,6.792867 h 1.50998 v 2.623096 c 0,3.763249 3.02962,6.792869 6.79287,6.792869 h 4.15117 c 3.76325,0 6.79286,-3.02962 6.79286,-6.792869 v -2.623096 h 122.27161 c 3.76324,0 6.79286,-3.029615 6.79286,-6.792867 v -9.056814 c 0,-3.76325 -3.02962,-6.79286 -6.79286,-6.79286 h -122.27161 v 2.12235 c 0,3.76325 -3.02961,6.79338 -6.79286,6.79338 h -4.15117 c -3.76325,0 -6.79287,-3.03013 -6.79287,-6.79338 v -2.12235 z" />
    <path
       id="path25"
       style="fill:#00ff00;fill-opacity:1;stroke:#ffffff;stroke-width:1;stroke-opacity:1"
       d="m -233.72613,-19.831929 c -3.76325,0 -6.79287,3.02961 -6.79287,6.79286 v 9.0568164 c 0,3.76325102 3.02962,6.792867 6.79287,6.792867 h 1.50998 v 2.623096 c 0,3.763249 3.02962,6.7928686 6.79287,6.7928686 h 4.15117 c 3.76325,0 6.79286,-3.0296196 6.79286,-6.7928686 v -2.623096 h 122.27161 c 3.76324,0 6.79286,-3.02961598 6.79286,-6.792867 v -9.0568164 c 0,-3.76325 -3.02962,-6.79286 -6.79286,-6.79286 h -122.27161 v 2.12235 c 0,3.76325 -3.02961,6.79338 -6.79286,6.79338 h -4.15117 c -3.76325,0 -6.79287,-3.03013 -6.79287,-6.79338 v -2.12235 z" />
    <path
       id="path26"
       style="fill:#ffda22;fill-opacity:1;stroke:#ffffff;stroke-width:1;stroke-dasharray:none;stroke-opacity:1"
       d="m -240.90976,67.486882 h -22.55805 V 171.15165 h 22.55805 z" />
    <path
       id="path28"
       style="fill:#00ff00;fill-opacity:1;stroke:#ffffff;stroke-width:1;stroke-opacity:1"
       d="m -233.72613,81.172864 c -3.76325,0 -6.79287,3.02961 -6.79287,6.79286 v 9.056815 c 0,3.763251 3.02962,6.792871 6.79287,6.792871 h 1.50998 v 2.62309 c 0,3.76325 3.02962,6.79287 6.79287,6.79287 h 4.15117 c 3.76325,0 6.79286,-3.02962 6.79286,-6.79287 v -2.62309 h 122.27161 c 3.76324,0 6.79286,-3.02962 6.79286,-6.792871 v -9.056815 c 0,-3.76325 -3.02962,-6.79286 -6.79286,-6.79286 h -122.27161 v 2.12235 c 0,3.76325 -3.02961,6.79338 -6.79286,6.79338 h -4.15117 c -3.76325,0 -6.79287,-3.03013 -6.79287,-6.79338 v -2.12235 z" />
    <path
       id="path29"
       style="fill:#00ff00;fill-opacity:1;stroke:#ffffff;stroke-width:1;stroke-opacity:1"
       d="m -233.72613,103.0046 c -3.76325,0 -6.79287,3.02961 -6.79287,6.79286 v 9.05682 c 0,3.76325 3.02962,6.79287 6.79287,6.79287 h 1.50998 v 2.62309 c 0,3.76325 3.02962,6.79287 6.79287,6.79287 h 4.15117 c 3.76325,0 6.79286,-3.02962 6.79286,-6.79287 v -2.62309 h 122.27161 c 3.76324,0 6.79286,-3.02962 6.79286,-6.79287 v -9.05682 c 0,-3.76325 -3.02962,-6.79286 -6.79286,-6.79286 h -122.27161 v 2.12235 c 0,3.76325 -3.02961,6.79338 -6.79286,6.79338 h -4.15117 c -3.76325,0 -6.79287,-3.03013 -6.79287,-6.79338 v -2.12235 z" />
    <path
       id="path30"
       style="fill:#00ff00;fill-opacity:1;stroke:#ffffff;stroke-width:1;stroke-opacity:1"
       d="m -233.72613,126.14789 c -3.76325,0 -6.79287,3.02961 -6.79287,6.79286 v 9.05682 c 0,3.76325 3.02962,6.79286 6.79287,6.79286 h 1.50998 v 2.6231 c 0,3.76325 3.02962,6.79287 6.79287,6.79287 h 4.15117 c 3.76325,0 6.79286,-3.02962 6.79286,-6.79287 v -2.6231 h 122.27161 c 3.76324,0 6.79286,-3.02961 6.79286,-6.79286 v -9.05682 c 0,-3.76325 -3.02962,-6.79286 -6.79286,-6.79286 h -122.27161 v 2.12235 c 0,3.76325 -3.02961,6.79338 -6.79286,6.79338 h -4.15117 c -3.76325,0 -6.79287,-3.03013 -6.79287,-6.79338 v -2.12235 z" />
    <path
       id="path31"
       style="fill:#00ff00;fill-opacity:1;stroke:#ffffff;stroke-width:1;stroke-opacity:1"
       d="m -233.72613,148.79043 c -3.76325,0 -6.79287,3.02961 -6.79287,6.79286 v 9.05682 c 0,3.76325 3.02962,6.79287 6.79287,6.79287 h 1.50998 v 2.62309 c 0,3.76325 3.02962,6.79287 6.79287,6.79287 h 4.15117 c 3.76325,0 6.79286,-3.02962 6.79286,-6.79287 v -2.62309 h 122.27161 c 3.76324,0 6.79286,-3.02962 6.79286,-6.79287 v -9.05682 c 0,-3.76325 -3.02962,-6.79286 -6.79286,-6.79286 h -122.27161 v 2.12235 c 0,3.76325 -3.02961,6.79338 -6.79286,6.79338 h -4.15117 c -3.76325,0 -6.79287,-3.03013 -6.79287,-6.79338 v -2.12235 z" />
    <path
       id="path7"
       style="fill:#ffda22;fill-opacity:1;stroke:#ffffff;stroke-width:1;stroke-opacity:1"
       d="M -263.54567 -87.163155 L -263.52087 -87.13835 L -263.52087 -77.705851 L -240.98116 -77.705851 C -240.98516 -77.760421 -240.98911 -77.815028 -240.99201 -77.869666 C -240.9921 -82.965753 -237.0908 -87.163163 -232.27833 -87.163155 L -263.54567 -87.163155 z M -232.27833 -87.163155 L -232.27833 -84.540059 C -232.27833 -80.776821 -229.24871 -77.747192 -225.48546 -77.747192 L -221.33429 -77.747192 C -217.57106 -77.747192 -214.54143 -80.776821 -214.54143 -84.540059 L -214.54143 -87.163155 L -232.27833 -87.163155 z "
       inkscape:export-filename="start_arm.svg"
       inkscape:export-xdpi="96"
       inkscape:export-ydpi="96" />
    <path
       id="path35"
       style="fill:#ffda22;fill-opacity:1;stroke:#ffffff;stroke-width:1;stroke-opacity:1"
       d="m -263.45859,25.929737 v 9.43249 l -0.0248,0.02481 c 0,6.61325 0.0356,2.96349 0.0356,6.72672 v 0.13229 8.92452 0.13229 c 0,3.76323 -0.0356,0.11347 -0.0356,6.72672 l 0.0248,0.02481 v 9.432501 h 22.53971 c -0.004,-0.0546 -0.008,-0.10918 -0.0109,-0.16382 -9e-5,-5.096081 3.9012,-9.293491 8.71368,-9.293491 v 2.6231 c 0,3.76324 3.02962,6.792871 6.79287,6.792871 h 4.15116 c 3.76324,0 6.79287,-3.029631 6.79287,-6.792871 v -2.6231 h 6.60425 v -22.64254 h -6.60425 -17.7369 c -4.81249,0 -8.71377,-4.19741 -8.71368,-9.29349 0.003,-0.05464 0.007,-0.10921 0.0109,-0.16381 z" />
    <path
       id="path37"
       style="fill:#ffda22;fill-opacity:1;stroke:#ffffff;stroke-width:1;stroke-opacity:1"
       d="m -263.45879,35.223165 v 6.726721 0.132292 8.92452 0.132292 6.726721 h 31.23168 17.73691 6.60424 V 35.223165 h -24.34115 z"
       inkscape:export-filename="src\main\resources\textures\capsule\middle_body.svg"
       inkscape:export-xdpi="96"
       inkscape:export-ydpi="96" />
    <path
       id="rect43"
       style="fill:#ffda22;stroke:#ffffff;stroke-width:1"
       d="m -263.45861,25.929737 v 9.293489 h 29.6478 c -4.04975,-0.806125 -7.11902,-4.611252 -7.11894,-9.129675 0.003,-0.05464 0.007,-0.109214 0.0109,-0.163814 z"
       inkscape:export-filename="src\main\resources\textures\capsule\arm_end.svg"
       inkscape:export-xdpi="96"
       inkscape:export-ydpi="96" />
    <path
       id="path44"
       style="fill:#ffda22;fill-opacity:1;stroke:#ffffff;stroke-width:1;stroke-opacity:1"
       d="M -263.45885 58.029533 L -263.45885 58.054338 L -263.45885 67.486837 L -240.91914 67.486837 C -240.92314 67.432237 -240.9271 67.377662 -240.93 67.323022 C -240.93009 62.226954 -237.02878 58.029533 -232.21632 58.029533 L -263.448 58.029533 L -263.45885 58.029533 z M -232.21632 58.029533 L -232.21632 60.652629 C -232.21632 64.41586 -229.1867 67.445496 -225.42345 67.445496 L -221.27228 67.445496 C -217.50906 67.445496 -214.47941 64.415861 -214.47941 60.652629 L -214.47941 58.029533 L -232.21632 58.029533 z " />
    <path
       id="path48"
       style="fill:#ffda22;fill-opacity:1;stroke:#ffffff;stroke-width:1;stroke-opacity:1"
       d="m -513.51974,-105.97868 v 0.0662 h -16.13596 c -3.7632,0 -6.79287,3.02964 -6.79287,6.792864 v 9.056811 c 0,3.763228 -0.0357,0.113465 -0.0357,6.726721 l 0.0248,0.0248 v 9.432499 h -0.009 V 29.786162 h 0.009 v 9.432501 l -0.0248,0.0248 c 0,6.61325 0.0357,2.963499 0.0357,6.72673 v 0.13229 8.92452 0.13229 c 0,3.76322 -0.0357,0.113479 -0.0357,6.72671 l 0.0248,0.0248 v 9.432501 h -0.009 V 175.0078 h 0.0294 v 9.26868 l -0.0248,0.0248 c 0,6.61325 0.0357,2.96349 0.0357,6.72672 v 9.05681 c 0,3.76323 3.02967,6.79287 6.79286,6.79287 h 16.13597 v 0.0661 h 6.79287 1.50998 17.73691 6.60425 115.66736 c 3.76322,0 6.79287,-3.02963 6.79287,-6.79287 v -9.05681 c 0,-3.76324 -3.02965,-6.79286 -6.79287,-6.79286 h -115.66736 -6.60425 -17.73691 c -4.81248,1e-5 -8.71377,-4.19741 -8.71368,-9.29349 0.003,-0.0546 0.007,-0.10922 0.0109,-0.16382 h -0.0109 V 71.343304 h -0.009 c -0.004,-0.0546 -0.008,-0.10917 -0.0109,-0.16381 -9e-5,-5.096071 3.9012,-9.293491 8.71368,-9.293491 v 2.6231 c 0,3.763229 3.02962,6.792861 6.79286,6.792861 h 4.15117 c 3.76325,0 6.79288,-3.029632 6.79288,-6.792851 v -2.6231 h 6.60425 115.66736 c 3.76321,0 6.79286,-3.02963 6.79286,-6.79287 v -9.05681 c 0,-3.76325 -3.02965,-6.79287 -6.79286,-6.79287 h -115.66736 -6.60425 -17.73691 c -4.81249,0 -8.71377,-4.19741 -8.71368,-9.293491 0.003,-0.0546 0.007,-0.10921 0.0109,-0.16381 h 0.009 V -73.87883 h -0.009 c -0.004,-0.05457 -0.008,-0.109177 -0.0109,-0.163815 -9e-5,-5.096087 3.9012,-9.293497 8.71368,-9.293489 v 2.623097 c 0,3.763238 3.02962,6.792867 6.79286,6.792867 h 4.15117 c 3.76325,0 6.79288,-3.029629 6.79288,-6.792867 v -2.623097 h 6.60425 115.66736 c 3.76321,0 6.79286,-3.029628 6.79286,-6.792867 v -9.056805 c 0,-3.763254 -3.02965,-6.792874 -6.79286,-6.792874 h -115.66736 -6.60425 -17.73691 -1.50998 z" />
    <path
       id="path59"
       style="fill:#00ff00;fill-opacity:1;stroke:#ffffff;stroke-width:1;stroke-opacity:1"
       d="m -233.72613,2.8106144 c -3.76325,0 -6.79287,3.02961 -6.79287,6.79286 V 18.66029 c 0,3.763251 3.02962,6.792867 6.79287,6.792867 h 1.50998 v 2.623096 c 0,3.763249 3.02962,6.792869 6.79287,6.792869 h 4.15117 c 3.76325,0 6.79286,-3.02962 6.79286,-6.792869 v -2.623096 h 122.27161 c 3.76324,0 6.79286,-3.029616 6.79286,-6.792867 V 9.6034744 c 0,-3.76325 -3.02962,-6.79286 -6.79286,-6.79286 h -122.27161 v 2.12235 c 0,3.76325 -3.02961,6.7933796 -6.79286,6.7933796 h -4.15117 c -3.76325,0 -6.79287,-3.0301296 -6.79287,-6.7933796 v -2.12235 z" />
    <path
       id="rect58"
       style="fill:#00ff00;fill-opacity:1;stroke:#ffffff;stroke-width:0.892501"
       d="m 30.190405,48.826477 v 0.07596 c 0,3.763243 3.029625,6.792867 6.792867,6.792867 h 1.509986 V 58.3184 c 0,3.763242 3.029622,6.792867 6.792867,6.792867 h 4.151167 c 3.763245,0 6.792868,-3.029625 6.792868,-6.792867 v -2.623096 h 6.604248 v -6.868827 z"
       inkscape:export-filename="src\main\resources\textures\function\left_bottom_c.svg"
       inkscape:export-xdpi="96"
       inkscape:export-ydpi="96" />
    <path
       id="path58"
       style="fill:#00ff00;fill-opacity:1;stroke:#ffffff;stroke-width:1;stroke-opacity:1"
       d="m 36.983272,33.052762 c -3.763242,0 -6.792867,3.029624 -6.792867,6.792868 v 4.081921 H 62.834408 V 33.052762 H 56.23016 v 2.122352 c 0,3.763246 -3.02962,6.793383 -6.792868,6.793383 h -4.151167 c -3.763248,0 -6.792867,-3.030137 -6.792867,-6.793383 v -2.122352 z"
       inkscape:export-filename="src\main\resources\textures\function\left_top.svg"
       inkscape:export-xdpi="96"
       inkscape:export-ydpi="96" />
    <path
       id="path23"
       style="fill:#00ff00;fill-opacity:1;stroke:#ffffff;stroke-width:1;stroke-opacity:1"
       d="m -233.72613,-65.117523 c -3.76325,0 -6.79287,3.02961 -6.79287,6.79286 v 9.056815 c 0,3.763251 3.02962,6.792867 6.79287,6.792867 h 1.50998 v 2.623096 c 0,3.763249 3.02962,6.792869 6.79287,6.792869 h 4.15117 c 3.76325,0 6.79286,-3.02962 6.79286,-6.792869 v -2.623096 h 122.27161 c 3.76324,0 6.79286,-3.029616 6.79286,-6.792867 v -9.056815 c 0,-3.76325 -3.02962,-6.79286 -6.79286,-6.79286 h -122.27161 v 2.12235 c 0,3.76325 -3.02961,6.79338 -6.79286,6.79338 h -4.15117 c -3.76325,0 -6.79287,-3.03013 -6.79287,-6.79338 v -2.12235 z" />
    <path
       id="path17"
       style="fill:#00ff00;fill-opacity:1;stroke:#ffffff;stroke-width:0.892501"
       d="M 38.493258 55.695308 L 38.493258 58.318404 C 38.493258 62.081642 41.522883 65.111271 45.286125 65.111271 L 49.437292 65.111271 C 53.200534 65.111271 56.23016 62.081642 56.23016 58.318404 L 56.23016 55.695308 L 38.493258 55.695308 z "
       inkscape:export-filename="src\main\resources\textures\function\connector.svg"
       inkscape:export-xdpi="96"
       inkscape:export-ydpi="96" />
    <path
       id="path21"
       style="fill:#00ff00;fill-opacity:1;stroke:#ffffff;stroke-width:0.892501"
       d="m 30.190405,48.902437 c 0,3.76324 3.029629,6.792867 6.792867,6.792867 h 1.509986 17.736902 6.604248 v -6.792867 z"
       inkscape:export-filename="src\main\resources\textures\function\left_bottom.svg"
       inkscape:export-xdpi="96"
       inkscape:export-ydpi="96" />
    <path
       id="path36"
       style="fill:#ffda22;fill-opacity:1;stroke:#ffffff;stroke-width:1;stroke-opacity:1"
       d="m -925.35588,-187.21075 v 2.18901 c 0,3.7632 -3.02966,6.79287 -6.79287,6.79287 h -4.15117 c -3.75974,0 -6.78673,-3.02419 -6.79235,-6.78254 v -2.1332 h -5.1e-4 -1.50999 c -0.4704,0 -0.92953,0.0473 -1.37252,0.13746 -0.44299,0.0902 -0.8698,0.22288 -1.27641,0.39429 -0.40662,0.17142 -0.79267,0.38163 -1.15394,0.62529 -0.36127,0.24367 -0.69763,0.5209 -1.00459,0.82785 -0.30695,0.30695 -0.5847,0.64332 -0.82837,1.00459 -0.24367,0.36127 -0.45335,0.74732 -0.62477,1.15394 -0.17142,0.40661 -0.30462,0.83393 -0.39481,1.27692 -0.0902,0.44299 -0.13745,0.90213 -0.13745,1.37253 v 4.5284 4.52841 c 0,3.76322 -0.0357,0.1135 -0.0357,6.72672 l 0.0248,0.0248 v 9.4325 h -0.009 v 103.664985 h 0.009 v 9.432499 l -0.0248,0.02481 c 0,6.613216 0.0357,2.963519 0.0357,6.726721 v 0.132292 8.92452 0.132291 c 0,3.763218 -0.0357,0.113505 -0.0357,6.726722 l 0.0248,0.0248 v 9.432499 h -0.009 V 93.77571 h 0.0294 v 9.26869 l -0.0243,0.0243 h -5.2e-4 v 5.2e-4 0.002 c 0,0.37432 0.002,0.0731 0.002,0.38654 0.003,5.2457 0.0298,3.26977 0.0326,6.13709 10e-6,0.006 0,0.003 0,0.009 9e-5,0.0867 5.2e-4,0.0849 5.2e-4,0.19275 v 9.05681 c 0,0.004 5.2e-4,0.007 5.2e-4,0.0114 10e-6,0.007 0.002,0.0132 0.002,0.0202 0.002,0.44992 0.0471,0.88884 0.13178,1.31362 0.001,0.005 4.7e-4,0.0112 0.002,0.0165 9.6e-4,0.004 0.002,0.008 0.003,0.0114 7.8e-4,0.004 0.002,0.008 0.003,0.0124 7.7e-4,0.004 0.003,0.007 0.004,0.0109 0.0891,0.42978 0.21772,0.84481 0.38344,1.24023 0.1704,0.40659 0.3796,0.79249 0.62219,1.15394 0.005,0.008 0.0106,0.0162 0.016,0.0243 0.2403,0.35474 0.51293,0.68533 0.81442,0.98753 1.22825,1.23117 2.92862,1.99161 4.81314,1.99161 h 1.50999 v 2.6231 c 0,3.76321 3.02962,6.79286 6.79286,6.79286 h 4.15117 c 3.76325,0 6.79287,-3.02965 6.79287,-6.79286 v -2.55695 h 3.68194 1.50999 17.7369 6.60425 v -5.2e-4 h 115.66736 c 3.76319,0 6.79286,-3.02963 6.79286,-6.79287 v -9.05681 c 0,-3.76321 -3.02967,-6.79286 -6.79286,-6.79286 h -115.66736 -7.62486 c -5.59828,0.002 -11.19657,-0.006 -16.79484,-0.008 -4.77536,-0.0465 -8.63522,-4.21765 -8.63513,-9.28522 0.003,-0.0546 0.007,-0.10922 0.0114,-0.16382 h -0.0114 V -9.888762 h -0.009 c -0.004,-0.054599 -0.008,-0.109174 -0.0109,-0.163814 -9e-5,-5.096055 3.90124,-9.293489 8.71368,-9.293489 v 2.623095 c 0,3.763207 3.02964,6.792867 6.79287,6.792867 h 4.15117 c 3.76322,0 6.79287,-3.02967 6.79287,-6.792867 v -2.623095 h 6.60424 115.66736 c 3.76319,0 6.79287,-3.029639 6.79287,-6.792867 v -9.056812 c 0,-3.763243 -3.02968,-6.792867 -6.79287,-6.792867 h -115.66736 -6.60424 -17.73691 c -4.81245,0 -8.71377,-4.19742 -8.71368,-9.29349 0.003,-0.0546 0.007,-0.109214 0.0109,-0.163814 h 0.009 V -155.1109 h -0.009 c -0.004,-0.0546 -0.008,-0.10918 -0.0109,-0.16382 -9e-5,-5.09607 3.90124,-9.2935 8.71368,-9.29349 v 2.6231 c 0,3.76322 3.02964,6.79286 6.79287,6.79286 h 4.15117 c 3.76322,0 6.79287,-3.02964 6.79287,-6.79286 v -2.6231 h 6.60424 115.66736 c 3.76319,0 6.79287,-3.02964 6.79287,-6.79287 v -9.05681 c 0,-3.76323 -3.02968,-6.79286 -6.79287,-6.79286 h -115.66736 -0.001 -6.60321 -0.001 -16.32407 -1.41283 -1.50998 z" />
    <path
       id="path33"
       style="fill:#ffda22;fill-opacity:1;stroke:#ffffff;stroke-width:1;stroke-opacity:1"
       d="m -710.55402,-166.97545 v 2.18902 c 0,3.76321 -3.02966,6.79286 -6.79287,6.79286 h -4.15116 c -3.76325,0 -6.79287,-3.02965 -6.79287,-6.79286 v -2.12287 h -1.51 c -3.76317,0 -6.79286,3.02966 -6.79286,6.79287 v 4.5284 h 30.87874 24.6941 v -11.38742 h -6.60425 -17.7369 -1.50998 z" />
    <path
       id="path45"
       style="fill:#ffda22;fill-opacity:1;stroke:#ffffff;stroke-width:1;stroke-opacity:1"
       d="m -263.45866,171.15165 v 9.4325 l 31.24254,0.0248 c -4.81248,1e-5 -8.71378,-4.1974 -8.71369,-9.29349 0.003,-0.0546 0.007,-0.10921 0.0109,-0.16381 z"
       sodipodi:nodetypes="cccccc"
       inkscape:export-filename="src\main\resources\textures\capsule\arm_end.svg"
       inkscape:export-xdpi="96"
       inkscape:export-ydpi="96" />
  </g>
</svg>
