<?xml version="1.0" encoding="UTF-8" standalone="no"?>
<!-- Created with Inkscape (http://www.inkscape.org/) -->

<svg
   width="75.185143mm"
   height="72.202011mm"
   viewBox="0 0 75.185143 72.202011"
   version="1.1"
   id="svg1"
   xml:space="preserve"
   inkscape:version="1.3 (0e150ed6c4, 2023-07-21)"
   sodipodi:docname="dibujo-2.svg"
   xmlns:inkscape="http://www.inkscape.org/namespaces/inkscape"
   xmlns:sodipodi="http://sodipodi.sourceforge.net/DTD/sodipodi-0.dtd"
   xmlns="http://www.w3.org/2000/svg"
   xmlns:svg="http://www.w3.org/2000/svg"><sodipodi:namedview
     id="namedview1"
     pagecolor="#ffffff"
     bordercolor="#000000"
     borderopacity="0.25"
     inkscape:showpageshadow="2"
     inkscape:pageopacity="0.0"
     inkscape:pagecheckerboard="0"
     inkscape:deskcolor="#d1d1d1"
     inkscape:document-units="mm"
     inkscape:zoom="0.50000001"
     inkscape:cx="554.99999"
     inkscape:cy="-227"
     inkscape:window-width="1920"
     inkscape:window-height="1017"
     inkscape:window-x="-8"
     inkscape:window-y="-8"
     inkscape:window-maximized="1"
     inkscape:current-layer="layer1" /><defs
     id="defs1" /><g
     inkscape:label="Capa 1"
     inkscape:groupmode="layer"
     id="layer1"
     transform="translate(-78.842707,109.39156)"><path
       style="fill:#d0d0d0;stroke-width:1.18616"
       d="m 25.937914,-58.582886 c 0.388373,-0.07485 1.023895,-0.07485 1.412269,0 0.388385,0.07485 0.07058,0.136006 -0.706135,0.136006 -0.776747,0 -1.094508,-0.06121 -0.706134,-0.136006 z m 43.472665,-0.937519 c 0.305354,-0.07959 0.729039,-0.07437 0.941516,0.01186 0.212478,0.086 -0.03736,0.151069 -0.555195,0.144676 -0.517831,-0.0059 -0.691675,-0.07675 -0.386321,-0.156313 z m -4.139566,-11.263778 c 0.01506,-0.365611 0.08944,-0.439972 0.189608,-0.18962 0.09062,0.226557 0.07947,0.497239 -0.02479,0.601527 -0.104264,0.104263 -0.178458,-0.08113 -0.164829,-0.411907 z M 53.34513,-74.236415 c 0.01506,-0.365599 0.08944,-0.439972 0.18962,-0.189608 0.09062,0.226545 0.07947,0.497239 -0.02479,0.601527 -0.104264,0.104263 -0.178471,-0.08113 -0.164841,-0.411919 z m -6.655417,-1.307662 c -0.390378,-0.497761 -0.379275,-0.508864 0.118498,-0.118497 0.302068,0.236888 0.549217,0.484037 0.549217,0.549217 0,0.258299 -0.257718,0.09205 -0.667703,-0.430732 z m 48.396,-3.086087 c 0.01506,-0.365599 0.08944,-0.439971 0.189608,-0.189608 0.09062,0.226557 0.07947,0.497239 -0.02479,0.601527 -0.104263,0.104264 -0.178458,-0.08113 -0.164829,-0.411919 z m 5.335257,0 c 0.0151,-0.365599 0.0894,-0.439971 0.18962,-0.189608 0.0906,0.226557 0.0795,0.497239 -0.0248,0.601527 -0.10427,0.104264 -0.17846,-0.08113 -0.16485,-0.411919 z m 11.27343,-6.212195 c 0,-0.06512 0.24715,-0.312317 0.54922,-0.549218 0.49776,-0.390378 0.50886,-0.379275 0.11849,0.118498 -0.40998,0.522778 -0.6677,0.689018 -0.6677,0.43072 z m 1.72612,-1.764536 c 0.31241,-0.345221 0.63865,-0.627682 0.72496,-0.627682 0.0863,0 -0.0987,0.282461 -0.41113,0.627682 -0.31242,0.345221 -0.63865,0.62767 -0.72496,0.62767 -0.0863,0 0.0987,-0.282449 0.41113,-0.62767 z m 68.33277,-1.883034 c 0,-0.604148 0.0647,-0.851285 0.14353,-0.549217 0.079,0.302068 0.079,0.796366 0,1.098434 -0.0789,0.302069 -0.14353,0.05492 -0.14353,-0.549217 z m -71.31425,-2.039951 c 0.58556,-0.604148 1.13526,-1.098446 1.22157,-1.098446 0.0863,0 -0.32218,0.494298 -0.90773,1.098446 -0.58556,0.604137 -1.13526,1.098435 -1.22157,1.098435 -0.0864,0 0.32218,-0.494298 0.90773,-1.098435 z m 98.85926,0.352267 c 0,-0.06512 0.24715,-0.312328 0.54922,-0.549217 0.49776,-0.390378 0.50887,-0.379276 0.1185,0.118498 -0.40999,0.522777 -0.6677,0.68903 -0.6677,0.430731 z M 20.392045,-92.439068 c 0.01506,-0.365611 0.08944,-0.439971 0.18962,-0.189608 0.09062,0.226545 0.07947,0.497228 -0.02479,0.601515 -0.104263,0.104264 -0.17847,-0.08113 -0.164841,-0.411907 z m 76.865757,-0.563095 c 0,-0.06524 0.247149,-0.312329 0.549218,-0.549217 0.497773,-0.390378 0.508875,-0.379276 0.118497,0.118497 -0.409985,0.522778 -0.667715,0.689031 -0.667715,0.430732 z m -76.865757,-0.692268 c 0.01506,-0.3656 0.08944,-0.43996 0.18962,-0.189609 0.09062,0.226558 0.07947,0.49724 -0.02479,0.601527 -0.104263,0.104264 -0.17847,-0.08113 -0.164841,-0.411918 z m 61.614752,-1.150733 -0.597861,-0.706146 0.706146,0.597862 c 0.663587,0.561837 0.849008,0.814419 0.59785,0.814419 -0.05955,0 -0.377307,-0.317761 -0.706135,-0.706135 z m 127.879143,-0.156929 c -0.39036,-0.497761 -0.37927,-0.508864 0.1185,-0.118498 0.30207,0.236901 0.54922,0.48405 0.54922,0.549218 0,0.258298 -0.25772,0.09205 -0.66772,-0.430732 z M 50.834427,-97.460498 c 0.01506,-0.365599 0.08944,-0.43996 0.189608,-0.189608 0.09062,0.226557 0.07947,0.497239 -0.02479,0.601526 -0.104263,0.104264 -0.178458,-0.08113 -0.164829,-0.411918 z m -8.727833,-5.055832 c 0.305354,-0.0796 0.729027,-0.0744 0.941516,0.0119 0.212478,0.086 -0.03736,0.15107 -0.555195,0.14468 -0.517831,-0.006 -0.691675,-0.0767 -0.386321,-0.1563 z m 1.883033,0 c 0.305354,-0.0796 0.729028,-0.0744 0.941517,0.0119 0.212477,0.086 -0.03736,0.15107 -0.555196,0.14468 -0.517831,-0.006 -0.691675,-0.0767 -0.386321,-0.1563 z m 203.243153,-1.58708 c -0.39038,-0.49778 -0.37928,-0.50887 0.11849,-0.1185 0.30207,0.2369 0.54922,0.48405 0.54922,0.54922 0,0.25829 -0.25773,0.092 -0.66771,-0.43072 z M 53.594165,-104.7311 c -0.390378,-0.49776 -0.379275,-0.50886 0.118498,-0.11849 0.522777,0.40998 0.68903,0.6677 0.430731,0.6677 -0.06512,0 -0.312316,-0.24715 -0.549217,-0.54922 z"
       id="path36"
       inkscape:export-filename="path36.png"
       inkscape:export-xdpi="96"
       inkscape:export-ydpi="96" /><ellipse
       style="fill:#eb902b;fill-opacity:1;stroke-width:6.25245"
       id="path7"
       cx="116.43529"
       cy="-73.29055"
       rx="37.592575"
       ry="36.101006" /><path
       id="path32"
       style="fill:#ffffff;fill-opacity:1;stroke-width:1.18616"
       d="m 118.8602,-97.791424 c -5.02422,0.06001 -10.43193,5.622659 -15.44971,15.892053 -3.73782,7.649817 -6.8158,16.515409 -9.58856,27.617952 -0.60351,2.416555 -1.17274,4.646252 -1.26504,4.954737 -0.15433,0.515821 0.077,0.553682 2.88096,0.470772 l 3.04943,-0.09043 1.49345,-5.962943 c 1.70737,-6.817879 4.04369,-14.024864 5.95054,-18.355469 1.51097,-3.431541 5.14987,-9.968185 7.07812,-12.714469 1.50885,-2.148945 4.40149,-4.993808 5.40019,-5.310787 1.44705,-0.45928 3.76588,1.609849 5.93814,5.298384 3.76315,6.389948 7.96068,21.055442 9.41286,32.886882 l 0.52968,4.315499 h 3.02979 3.02979 l -0.42581,-3.530534 c -1.85117,-15.336952 -5.89158,-29.906864 -10.36268,-37.369812 -3.00124,-5.00956 -7.14159,-8.144431 -10.70115,-8.101831 z" /></g></svg>
