<?xml version="1.0" encoding="UTF-8" standalone="no"?>
<!-- Created with Inkscape (http://www.inkscape.org/) -->

<svg
   width="44.714638mm"
   height="33.05851mm"
   viewBox="0 0 44.714638 33.05851"
   version="1.1"
   id="svg1"
   inkscape:version="1.3 (0e150ed6c4, 2023-07-21)"
   sodipodi:docname="function.svg"
   xmlns:inkscape="http://www.inkscape.org/namespaces/inkscape"
   xmlns:sodipodi="http://sodipodi.sourceforge.net/DTD/sodipodi-0.dtd"
   xmlns="http://www.w3.org/2000/svg"
   xmlns:svg="http://www.w3.org/2000/svg">
  <sodipodi:namedview
     id="namedview1"
     pagecolor="#ffffff"
     bordercolor="#000000"
     borderopacity="0.25"
     inkscape:showpageshadow="2"
     inkscape:pageopacity="0.0"
     inkscape:pagecheckerboard="0"
     inkscape:deskcolor="#d1d1d1"
     inkscape:document-units="mm"
     inkscape:zoom="0.90509668"
     inkscape:cx="108.82815"
     inkscape:cy="418.18737"
     inkscape:window-width="1920"
     inkscape:window-height="1017"
     inkscape:window-x="-8"
     inkscape:window-y="-8"
     inkscape:window-maximized="1"
     inkscape:current-layer="layer1" />
  <defs
     id="defs1" />
  <g
     inkscape:label="Capa 1"
     inkscape:groupmode="layer"
     id="layer1">
    <path
       id="path32"
       style="fill:#00ff00;fill-opacity:1;stroke:#ffffff;stroke-width:1;stroke-opacity:1"
       d="M 7.29287,0.5 C 3.52962,0.5 0.5,3.52961 0.5,7.29286 v 9.056815 c 0,3.763251 3.02962,6.792867 6.79287,6.792867 h 1.50998 v 2.623096 c 0,3.763249 3.02962,6.792869 6.79287,6.792869 h 4.15117 c 3.76325,0 6.79286,-3.02962 6.79286,-6.792869 v -2.623096 h 10.882028 c 3.76324,0 6.79286,-3.029616 6.79286,-6.792867 V 7.29286 C 44.214638,3.52961 41.185018,0.5 37.421778,0.5 H 26.53975 v 2.12235 c 0,3.76325 -3.02961,6.79338 -6.79286,6.79338 h -4.15117 c -3.76325,0 -6.79287,-3.03013 -6.79287,-6.79338 V 0.5 Z"
       sodipodi:nodetypes="sssscsssscsssscsssscs" />
  </g>
</svg>
