<?xml version="1.0" encoding="UTF-8" standalone="no"?>
<!-- Created with Inkscape (http://www.inkscape.org/) -->

<svg
   width="33.536503mm"
   height="17.177292mm"
   viewBox="0 0 33.536503 17.177292"
   version="1.1"
   id="svg1"
   inkscape:version="1.3 (0e150ed6c4, 2023-07-21)"
   sodipodi:docname="dibujo-1.svg"
   xmlns:inkscape="http://www.inkscape.org/namespaces/inkscape"
   xmlns:sodipodi="http://sodipodi.sourceforge.net/DTD/sodipodi-0.dtd"
   xmlns="http://www.w3.org/2000/svg"
   xmlns:svg="http://www.w3.org/2000/svg">
  <sodipodi:namedview
     id="namedview1"
     pagecolor="#ffffff"
     bordercolor="#000000"
     borderopacity="0.25"
     inkscape:showpageshadow="2"
     inkscape:pageopacity="0.0"
     inkscape:pagecheckerboard="0"
     inkscape:deskcolor="#d1d1d1"
     inkscape:document-units="mm"
     inkscape:zoom="0.25000001"
     inkscape:cx="-1022"
     inkscape:cy="-125.99999"
     inkscape:window-width="1920"
     inkscape:window-height="1017"
     inkscape:window-x="-8"
     inkscape:window-y="-8"
     inkscape:window-maximized="1"
     inkscape:current-layer="layer1" />
  <defs
     id="defs1" />
  <g
     inkscape:label="Capa 1"
     inkscape:groupmode="layer"
     id="layer1"
     transform="translate(-29.744155,-48.380225)">
    <path
       id="path3"
       style="fill:#00ff00;fill-opacity:1;stroke:#ffffff;stroke-width:1;stroke-opacity:1"
       d="M 62.834408,32.606278 V 55.248824 H 178.50177 V 32.606278 Z" />
    <path
       id="rect4"
       style="fill:#00ff00;fill-opacity:1;stroke:#ffffff;stroke-width:1;stroke-opacity:1"
       d="m 36.983272,32.606278 c -3.763246,0 -6.792867,3.029621 -6.792867,6.792868 v 9.056811 c 0,3.763247 3.029621,6.792867 6.792867,6.792867 h 1.509986 v 2.623096 c 0,3.763246 3.029619,6.792867 6.792867,6.792867 h 4.151167 c 3.763248,0 6.792868,-3.029621 6.792868,-6.792867 v -2.623096 h 6.604248 V 32.606278 H 56.23016 v 2.122352 c 0,3.76325 -3.029617,6.793383 -6.792868,6.793383 h -4.151167 c -3.763251,0 -6.792867,-3.030133 -6.792867,-6.793383 v -2.122352 z"
       inkscape:export-filename="left.svg"
       inkscape:export-xdpi="96"
       inkscape:export-ydpi="96" />
    <path
       id="rect58"
       style="fill:#00ff00;fill-opacity:1;stroke:#ffffff;stroke-width:0.892501"
       d="m 30.190405,48.826477 v 0.07596 c 0,3.763243 3.029625,6.792867 6.792867,6.792867 h 1.509986 V 58.3184 c 0,3.763242 3.029622,6.792867 6.792867,6.792867 h 4.151167 c 3.763245,0 6.792868,-3.029625 6.792868,-6.792867 v -2.623096 h 6.604248 v -6.868827 z"
       inkscape:export-filename="src\main\resources\textures\function\left_bottom_c.svg"
       inkscape:export-xdpi="96"
       inkscape:export-ydpi="96" />
    <path
       id="path17"
       style="fill:#00ff00;fill-opacity:1;stroke:#ffffff;stroke-width:0.892501"
       d="m 38.493258,55.695308 v 2.623096 c 0,3.763238 3.029625,6.792867 6.792867,6.792867 h 4.151167 c 3.763242,0 6.792868,-3.029629 6.792868,-6.792867 v -2.623096 z"
       inkscape:export-filename="src\main\resources\textures\function\connector.svg"
       inkscape:export-xdpi="96"
       inkscape:export-ydpi="96" />
    <path
       id="path21"
       style="fill:#00ff00;fill-opacity:1;stroke:#ffffff;stroke-width:0.892501"
       d="m 30.190405,48.902441 c 0,3.76324 3.029629,6.792867 6.792867,6.792867 h 1.509986 17.736902 6.604248 v -6.792867 z"
       inkscape:export-filename="src\main\resources\textures\function\left_bottom.svg"
       inkscape:export-xdpi="96"
       inkscape:export-ydpi="96" />
    <path
       id="path32"
       style="fill:#00ff00;fill-opacity:1;stroke:#ffffff;stroke-width:1;stroke-opacity:1"
       d="m 36.983275,33.05277 c -3.76325,0 -6.79287,3.02961 -6.79287,6.79286 v 9.056815 c 0,3.763251 3.02962,6.792867 6.79287,6.792867 h 1.50998 v 2.623096 c 0,3.763249 3.02962,6.792869 6.79287,6.792869 h 4.15117 c 3.76325,0 6.79286,-3.02962 6.79286,-6.792869 V 55.695312 H 178.50176 c 3.76324,0 6.79286,-3.029616 6.79286,-6.792867 V 39.84563 c 0,-3.76325 -3.02962,-6.79286 -6.79286,-6.79286 H 56.230155 v 2.12235 c 0,3.76325 -3.02961,6.79338 -6.79286,6.79338 h -4.15117 c -3.76325,0 -6.79287,-3.03013 -6.79287,-6.79338 v -2.12235 z" />
  </g>
</svg>
