<?xml version="1.0" encoding="UTF-8" standalone="no"?>
<!-- Created with Inkscape (http://www.inkscape.org/) -->

<svg
   width="7.7928705mm"
   height="23.642548mm"
   viewBox="0 0 7.7928705 23.642548"
   version="1.1"
   id="svg1"
   xmlns:inkscape="http://www.inkscape.org/namespaces/inkscape"
   xmlns:sodipodi="http://sodipodi.sourceforge.net/DTD/sodipodi-0.dtd"
   xmlns="http://www.w3.org/2000/svg"
   xmlns:svg="http://www.w3.org/2000/svg">
  <sodipodi:namedview
     id="namedview1"
     pagecolor="#ffffff"
     bordercolor="#000000"
     borderopacity="0.25"
     inkscape:showpageshadow="2"
     inkscape:pageopacity="0.0"
     inkscape:pagecheckerboard="0"
     inkscape:deskcolor="#d1d1d1"
     inkscape:document-units="mm" />
  <defs
     id="defs1" />
  <g
     inkscape:label="Capa 1"
     inkscape:groupmode="layer"
     id="layer1"
     transform="translate(-178.00176,-32.10628)">
    <path
       id="path3"
       style="fill:#00ff00;fill-opacity:1;stroke:#ffffff;stroke-width:1;stroke-opacity:1"
       d="M 62.834408,32.606278 V 55.248824 H 178.50177 V 32.606278 Z" />
    <path
       id="path10"
       style="fill:#00ff00;fill-opacity:1;stroke:#ffffff;stroke-width:1;stroke-opacity:1"
       d="m 178.50177,32.606278 v 22.642546 c 3.76322,0 6.79286,-3.029624 6.79286,-6.792867 v -9.056811 c 0,-3.763244 -3.02964,-6.792868 -6.79286,-6.792868 z" />
    <path
       id="rect1"
       style="fill:#00ff00;fill-opacity:1;stroke:#ffffff;stroke-width:1;stroke-opacity:1"
       d="m 36.983275,32.606279 c -3.76325,0 -6.792867,3.029617 -6.792867,6.792867 v 9.056811 c 0,3.763251 3.029617,6.792867 6.792867,6.792867 h 1.509986 v 2.623096 c 0,3.763249 3.029616,6.792869 6.792867,6.792869 h 4.151167 c 3.763251,0 6.792868,-3.02962 6.792868,-6.792869 V 55.248824 H 178.50177 c 3.76324,0 6.79286,-3.029616 6.79286,-6.792867 v -9.056811 c 0,-3.76325 -3.02962,-6.792867 -6.79286,-6.792867 H 56.230163 v 2.122351 c 0,3.763254 -3.029614,6.793384 -6.792868,6.793384 h -4.151167 c -3.763254,0 -6.792867,-3.03013 -6.792867,-6.793384 v -2.122351 z" />
  </g>
</svg>
