<?xml version="1.0" encoding="UTF-8" standalone="no"?>
<!-- Created with Inkscape (http://www.inkscape.org/) -->

<svg
   width="7.7928543mm"
   height="23.64255mm"
   viewBox="0 0 7.7928543 23.64255"
   version="1.1"
   id="svg1"
   inkscape:version="1.3 (0e150ed6c4, 2023-07-21)"
   sodipodi:docname="dibujo-1.svg"
   xmlns:inkscape="http://www.inkscape.org/namespaces/inkscape"
   xmlns:sodipodi="http://sodipodi.sourceforge.net/DTD/sodipodi-0.dtd"
   xmlns="http://www.w3.org/2000/svg"
   xmlns:svg="http://www.w3.org/2000/svg">
  <sodipodi:namedview
     id="namedview1"
     pagecolor="#ffffff"
     bordercolor="#000000"
     borderopacity="0.25"
     inkscape:showpageshadow="2"
     inkscape:pageopacity="0.0"
     inkscape:pagecheckerboard="0"
     inkscape:deskcolor="#d1d1d1"
     inkscape:document-units="mm"
     inkscape:zoom="0.25000001"
     inkscape:cx="-361.99999"
     inkscape:cy="-277.99999"
     inkscape:window-width="1920"
     inkscape:window-height="1017"
     inkscape:window-x="-8"
     inkscape:window-y="-8"
     inkscape:window-maximized="1"
     inkscape:current-layer="layer1" />
  <defs
     id="defs1" />
  <g
     inkscape:label="Capa 1"
     inkscape:groupmode="layer"
     id="layer1"
     transform="translate(92.769816,110.30571)">
    <path
       id="path4"
       style="fill:#ffda22;fill-opacity:1;stroke:#ffffff;stroke-width:1;stroke-opacity:1"
       d="m -207.93718,-109.8057 v 22.642546 H -92.269817 V -109.8057 Z" />
    <path
       id="path5"
       style="fill:#ffda22;fill-opacity:1;stroke:#ffffff;stroke-width:1;stroke-opacity:1"
       d="m -92.269817,-109.8057 v 22.642546 c 3.76322,0 6.79286,-3.029624 6.79286,-6.792867 v -9.056809 c 0,-3.76325 -3.02964,-6.79287 -6.79286,-6.79287 z"
       inkscape:export-filename="src\main\resources\textures\capsule\end.svg"
       inkscape:export-xdpi="96"
       inkscape:export-ydpi="96" />
    <path
       id="path48"
       style="fill:#ffda22;fill-opacity:1;stroke:#ffffff;stroke-width:1;stroke-opacity:1"
       d="m -240.58168,-109.8057 v 0.0662 h -16.13596 c -3.7632,0 -6.79287,3.02964 -6.79287,6.79286 v 9.056815 c 0,3.763228 -0.0357,0.113465 -0.0357,6.726721 l 0.0248,0.0248 v 9.432499 h -0.009 V 25.95914 h 0.009 v 9.4325 l -0.0248,0.0248 c 0,6.61325 0.0357,2.9635 0.0357,6.72673 v 0.13229 8.92452 0.13229 c 0,3.76322 -0.0357,0.11348 -0.0357,6.72672 l 0.0248,0.0248 v 9.4325 h -0.009 v 103.66448 h 0.0294 v 9.26868 l -0.0248,0.0248 c 0,6.61325 0.0357,2.96349 0.0357,6.72672 v 9.05681 c 0,3.76323 3.02967,6.79287 6.79286,6.79287 h 16.13597 v 0.0661 h 6.79287 1.50998 17.7369 6.60425 115.667362 c 3.76322,0 6.79287,-3.02963 6.79287,-6.79287 v -9.05681 c 0,-3.76324 -3.02965,-6.79286 -6.79287,-6.79286 h -115.667362 -6.60425 -17.7369 c -4.81248,1e-5 -8.71377,-4.19741 -8.71368,-9.29349 0.003,-0.0546 0.007,-0.10922 0.0109,-0.16382 h -0.0109 V 67.51629 h -0.009 c -0.004,-0.0546 -0.008,-0.10917 -0.0109,-0.16381 -9e-5,-5.09608 3.9012,-9.29349 8.71368,-9.29349 v 2.6231 c 0,3.76323 3.02962,6.79286 6.79286,6.79286 h 4.15117 c 3.76324,0 6.79287,-3.02963 6.79287,-6.79286 v -2.6231 h 6.60425 115.667362 c 3.76321,0 6.79286,-3.02963 6.79286,-6.79287 v -9.05681 c 0,-3.76325 -3.02965,-6.79287 -6.79286,-6.79287 h -115.667362 -6.60425 -17.7369 c -4.81249,0 -8.71377,-4.19741 -8.71368,-9.29349 0.003,-0.0546 0.007,-0.10921 0.0109,-0.16381 h 0.009 V -77.70585 h -0.009 c -0.004,-0.05457 -0.008,-0.109177 -0.0109,-0.163815 -9e-5,-5.096087 3.9012,-9.293497 8.71368,-9.293489 v 2.623096 c 0,3.763238 3.02962,6.792867 6.79286,6.792867 h 4.15117 c 3.76324,0 6.79287,-3.029629 6.79287,-6.792867 v -2.623096 h 6.60425 115.667362 c 3.76321,0 6.79286,-3.029628 6.79286,-6.792867 v -9.056809 c 0,-3.76325 -3.02965,-6.79287 -6.79286,-6.79287 h -115.667362 -6.60425 -17.7369 -1.50999 z" />
  </g>
</svg>
