<?xml version="1.0" encoding="UTF-8" standalone="no"?>
<!-- Created with Inkscape (http://www.inkscape.org/) -->

<svg
   width="56.608494mm"
   height="33.177383mm"
   viewBox="0 0 56.608494 33.177383"
   version="1.1"
   id="svg1"
   inkscape:version="1.3 (0e150ed6c4, 2023-07-21)"
   sodipodi:docname="dibujo-1.svg"
   xmlns:inkscape="http://www.inkscape.org/namespaces/inkscape"
   xmlns:sodipodi="http://sodipodi.sourceforge.net/DTD/sodipodi-0.dtd"
   xmlns="http://www.w3.org/2000/svg"
   xmlns:svg="http://www.w3.org/2000/svg">
  <sodipodi:namedview
     id="namedview1"
     pagecolor="#ffffff"
     bordercolor="#000000"
     borderopacity="0.25"
     inkscape:showpageshadow="2"
     inkscape:pageopacity="0.0"
     inkscape:pagecheckerboard="0"
     inkscape:deskcolor="#d1d1d1"
     inkscape:document-units="mm"
     inkscape:zoom="5.6568548"
     inkscape:cx="-2874.9191"
     inkscape:cy="-405.61409"
     inkscape:window-width="1920"
     inkscape:window-height="1001"
     inkscape:window-x="-9"
     inkscape:window-y="-9"
     inkscape:window-maximized="1"
     inkscape:current-layer="layer1" />
  <defs
     id="defs1" />
  <g
     inkscape:label="Capa 1"
     inkscape:groupmode="layer"
     id="layer1"
     transform="translate(944.09585,-165.51812)">
    <path
       id="path34"
       style="fill:#ffda22;fill-opacity:1;stroke:#ffffff;stroke-width:1;stroke-opacity:1"
       d="m -943.57108,166.17831 -0.0248,0.0248 c 0,6.61326 0.0357,2.96351 0.0357,6.72672 v 8.98085 0.076 c 0,3.76323 3.02964,6.79286 6.79286,6.79286 h 1.50999 v 2.6231 c 0,3.76322 3.02962,6.79287 6.79287,6.79287 h 4.15116 c 3.76325,0 6.79287,-3.02965 6.79287,-6.79287 v -2.55695 h 3.68195 1.50998 17.7369 6.60425 v -22.64255 h -6.60425 c -16.32649,0.006 -32.65296,-0.0118 -48.97944,-0.0248 z"
       sodipodi:nodetypes="ccscsscsssscccccccc" />
    <path
       id="path36"
       style="fill:#ffda22;fill-opacity:1;stroke:#ffffff;stroke-width:1;stroke-opacity:1"
       d="m -917.54141,-124.07821 v 2.18901 c 0,3.7632 -3.02966,6.79287 -6.79287,6.79287 h -4.15117 c -3.75974,0 -6.78673,-3.02419 -6.79235,-6.78254 v -2.1332 h -5.1e-4 -1.50999 c -0.4704,0 -0.92953,0.0473 -1.37252,0.13746 -0.44299,0.0902 -0.8698,0.22288 -1.27641,0.39429 -0.40662,0.17142 -0.79267,0.38163 -1.15394,0.62529 -0.36127,0.24367 -0.69763,0.5209 -1.00459,0.82785 -0.30695,0.30695 -0.5847,0.64332 -0.82837,1.00459 -0.24367,0.36127 -0.45335,0.74732 -0.62477,1.15394 -0.17142,0.40661 -0.30462,0.83393 -0.39481,1.27692 -0.0902,0.44299 -0.13745,0.90213 -0.13745,1.37253 v 4.5284 4.52841 c 0,3.76322 -0.0357,0.1135 -0.0357,6.72672 l 0.0248,0.0248 v 9.432495 h -0.009 v 103.66499 h 0.009 v 9.432499 l -0.0248,0.02481 c 0,6.613216 0.0357,2.963519 0.0357,6.726721 v 0.132292 8.92452 0.132291 c 0,3.763218 -0.0357,0.113505 -0.0357,6.726722 l 0.0248,0.0248 v 9.432499 h -0.009 V 156.90825 h 0.0294 v 9.26869 l -0.0243,0.0243 h -5.2e-4 v 5.2e-4 0.002 c 0,0.37432 0.002,0.0731 0.002,0.38654 0.003,5.2457 0.0298,3.26977 0.0326,6.13709 10e-6,0.006 0,0.003 0,0.009 9e-5,0.0867 5.2e-4,0.0849 5.2e-4,0.19275 v 9.05681 c 0,0.004 5.2e-4,0.007 5.2e-4,0.0114 10e-6,0.007 0.002,0.0132 0.002,0.0202 0.002,0.44992 0.0471,0.88884 0.13178,1.31362 10e-4,0.005 4.7e-4,0.0112 0.002,0.0165 9.6e-4,0.004 0.002,0.008 0.003,0.0114 7.8e-4,0.004 0.002,0.008 0.003,0.0124 7.7e-4,0.004 0.003,0.007 0.004,0.0109 0.0891,0.42978 0.21772,0.84481 0.38344,1.24023 0.1704,0.40659 0.3796,0.79249 0.62219,1.15394 0.005,0.008 0.0106,0.0162 0.016,0.0243 0.2403,0.35474 0.51293,0.68533 0.81442,0.98753 1.22825,1.23117 2.92862,1.99161 4.81314,1.99161 h 1.50999 v 2.6231 c 0,3.76321 3.02962,6.79286 6.79286,6.79286 h 4.15117 c 3.76325,0 6.79287,-3.02965 6.79287,-6.79286 v -2.55695 h 3.68194 1.50999 17.7369 6.60425 v -5.2e-4 h 115.66736 c 3.76319,0 6.79286,-3.02963 6.79286,-6.79287 v -9.05681 c 0,-3.76321 -3.02967,-6.79286 -6.79286,-6.79286 h -115.66736 -7.62486 c -5.59828,0.002 -11.19657,-0.006 -16.79484,-0.008 -4.77536,-0.0465 -8.63522,-4.21765 -8.63513,-9.28522 0.003,-0.0546 0.007,-0.10922 0.0114,-0.16382 h -0.0114 V 53.243778 h -0.009 c -0.004,-0.0546 -0.008,-0.109174 -0.0109,-0.163814 -9e-5,-5.096055 3.90124,-9.293489 8.71368,-9.293489 v 2.623095 c 0,3.763207 3.02964,6.792867 6.79287,6.792867 h 4.15117 c 3.76322,0 6.79287,-3.02967 6.79287,-6.792867 v -2.623095 h 6.60424 115.66736 c 3.76319,0 6.79287,-3.029639 6.79287,-6.792867 v -9.056812 c 0,-3.763243 -3.02968,-6.792867 -6.79287,-6.792867 h -115.66736 -6.60424 -17.73691 c -4.81245,0 -8.71377,-4.19742 -8.71368,-9.29349 0.003,-0.0546 0.007,-0.109214 0.0109,-0.163814 h 0.009 v -103.66499 h -0.009 c -0.004,-0.05457 -0.008,-0.109176 -0.0109,-0.163814 -9e-5,-5.096067 3.90124,-9.293501 8.71368,-9.293491 v 2.623097 c 0,3.763223 3.02964,6.792867 6.79287,6.792867 h 4.15117 c 3.76322,0 6.79287,-3.029644 6.79287,-6.792867 v -2.623097 h 6.60424 115.66736 c 3.76319,0 6.79287,-3.02964 6.79287,-6.79287 v -9.05681 c 0,-3.76323 -3.02968,-6.79286 -6.79287,-6.79286 h -115.66736 -10e-4 -6.60321 -10e-4 -16.32407 -1.41283 -1.50998 z" />
  </g>
</svg>
