<?xml version="1.0" encoding="UTF-8" standalone="no"?>
<!-- Created with Inkscape (http://www.inkscape.org/) -->

<svg
   width="56.608509mm"
   height="23.64255mm"
   viewBox="0 0 56.608509 23.64255"
   version="1.1"
   id="svg1"
   inkscape:version="1.3 (0e150ed6c4, 2023-07-21)"
   sodipodi:docname="dibujo-1.svg"
   xmlns:inkscape="http://www.inkscape.org/namespaces/inkscape"
   xmlns:sodipodi="http://sodipodi.sourceforge.net/DTD/sodipodi-0.dtd"
   xmlns="http://www.w3.org/2000/svg"
   xmlns:svg="http://www.w3.org/2000/svg">
  <sodipodi:namedview
     id="namedview1"
     pagecolor="#ffffff"
     bordercolor="#000000"
     borderopacity="0.25"
     inkscape:showpageshadow="2"
     inkscape:pageopacity="0.0"
     inkscape:pagecheckerboard="0"
     inkscape:deskcolor="#d1d1d1"
     inkscape:document-units="mm"
     inkscape:zoom="0.25000001"
     inkscape:cx="-361.99999"
     inkscape:cy="-277.99999"
     inkscape:window-width="1920"
     inkscape:window-height="1017"
     inkscape:window-x="-8"
     inkscape:window-y="-8"
     inkscape:window-maximized="1"
     inkscape:current-layer="layer1" />
  <defs
     id="defs1" />
  <g
     inkscape:label="Capa 1"
     inkscape:groupmode="layer"
     id="layer1"
     transform="translate(263.98353,-180.10896)">
    <path
       id="path9"
       style="fill:#ffda22;fill-opacity:1;stroke:#ffffff;stroke-width:1;stroke-opacity:1"
       d="m -240.51892,203.2515 v -0.0661 h -16.13597 c -3.7632,0 -6.79285,-3.02964 -6.79285,-6.79287 v -9.05686 c 0,-3.76323 -0.0357,-0.11346 -0.0357,-6.72672 l 0.0248,-0.0248 v -9.4325 h 22.5397 c -0.004,0.0546 -0.008,0.10917 -0.0109,0.16381 -9e-5,5.09609 3.9012,9.2935 8.71369,9.29349 17.7369,0 0,0 17.7369,0 h 6.60425 v 22.64256 h -6.60425 -17.7369 -1.50999 z"
       sodipodi:nodetypes="ccsssccccccccccccc" />
    <path
       id="path11"
       style="fill:#ffda22;fill-opacity:1;stroke:#ffffff;stroke-width:1;stroke-opacity:1"
       d="M -207.875,180.60895 V 203.2515 H -92.20764 V 180.60895 Z" />
    <path
       id="path31"
       style="fill:#00ff00;fill-opacity:1;stroke:#ffffff;stroke-width:1;stroke-opacity:1"
       d="m -233.72613,148.79043 c -3.76325,0 -6.79287,3.02961 -6.79287,6.79286 v 9.05682 c 0,3.76325 3.02962,6.79287 6.79287,6.79287 h 1.50998 v 2.62309 c 0,3.76325 3.02962,6.79287 6.79287,6.79287 h 4.15117 c 3.76325,0 6.79286,-3.02962 6.79286,-6.79287 v -2.62309 h 122.27161 c 3.76324,0 6.79286,-3.02962 6.79286,-6.79287 v -9.05682 c 0,-3.76325 -3.02962,-6.79286 -6.79286,-6.79286 h -122.27161 v 2.12235 c 0,3.76325 -3.02961,6.79338 -6.79286,6.79338 h -4.15117 c -3.76325,0 -6.79287,-3.03013 -6.79287,-6.79338 v -2.12235 z" />
    <path
       id="path45"
       style="fill:#ffda22;fill-opacity:1;stroke:#ffffff;stroke-width:1;stroke-opacity:1"
       d="m -263.45885,171.15183 v 9.4325 l -0.0248,0.0248 h 31.26734 c -4.81248,1e-5 -8.71377,-4.1974 -8.71368,-9.29349 0.003,-0.0546 0.007,-0.10921 0.0109,-0.16381 z" />
    <path
       id="path46"
       style="fill:#ffda22;fill-opacity:1;stroke:#ffffff;stroke-width:1;stroke-opacity:1"
       d="m -263.48352,180.609 c 0,6.61325 0.0362,2.9635 0.0362,6.72672 v 9.05681 c 0,3.76323 3.02916,6.79287 6.79235,6.79287 h 16.13597 v 0.0661 h 32.644 v -22.64255 h -24.34115 z" />
    <path
       id="path48"
       style="fill:#ffda22;fill-opacity:1;stroke:#ffffff;stroke-width:1;stroke-opacity:1"
       d="m -240.52871,-109.83459 v 0.0662 h -16.13596 c -3.7632,0 -6.79287,3.02964 -6.79287,6.79286 v 9.056817 c 0,3.763228 -0.0357,0.113465 -0.0357,6.726721 l 0.0248,0.0248 v 9.432499 h -0.009 V 25.930254 h 0.009 v 9.4325 l -0.0248,0.0248 c 0,6.61325 0.0357,2.9635 0.0357,6.72673 v 0.13229 8.92452 0.13229 c 0,3.763216 -0.0357,0.11348 -0.0357,6.726716 l 0.0248,0.0248 v 9.4325 h -0.009 v 103.66448 h 0.0294 v 9.26868 l -0.0248,0.0248 c 0,6.61325 0.0357,2.96349 0.0357,6.72672 v 9.05681 c 0,3.76323 3.02967,6.79287 6.79286,6.79287 h 16.13597 v 0.0661 h 6.79287 1.50998 17.73691 6.60425 115.667357 c 3.76322,0 6.79287,-3.02963 6.79287,-6.79287 v -9.05681 c 0,-3.76324 -3.02965,-6.79286 -6.79287,-6.79286 h -115.667357 -6.60425 -17.73691 c -4.81248,1e-5 -8.71377,-4.19741 -8.71368,-9.29349 0.003,-0.0546 0.007,-0.10922 0.0109,-0.16382 h -0.0109 V 67.4874 h -0.009 c -0.004,-0.0546 -0.008,-0.10917 -0.0109,-0.16381 -9e-5,-5.09608 3.9012,-9.29349 8.71368,-9.29349 v 2.6231 c 0,3.76323 3.02962,6.79286 6.79286,6.79286 h 4.15117 c 3.76325,0 6.79288,-3.02963 6.79288,-6.79286 v -2.6231 h 6.60425 115.667357 c 3.76321,0 6.79286,-3.02963 6.79286,-6.792866 v -9.05681 c 0,-3.76325 -3.02965,-6.79287 -6.79286,-6.79287 h -115.667357 -6.60425 -17.73691 c -4.81249,0 -8.71377,-4.19741 -8.71368,-9.29349 0.003,-0.0546 0.007,-0.10921 0.0109,-0.16381 h 0.009 V -77.734738 h -0.009 c -0.004,-0.05457 -0.008,-0.109177 -0.0109,-0.163815 -9e-5,-5.096087 3.9012,-9.293497 8.71368,-9.293489 v 2.623096 c 0,3.763238 3.02962,6.792867 6.79286,6.792867 h 4.15117 c 3.76325,0 6.79288,-3.029629 6.79288,-6.792867 v -2.623096 h 6.60425 115.667357 c 3.76321,0 6.79286,-3.029628 6.79286,-6.792867 v -9.056811 c 0,-3.76325 -3.02965,-6.79287 -6.79286,-6.79287 h -115.667357 -6.60425 -17.73691 -1.50998 z" />
  </g>
</svg>
