<?xml version="1.0" encoding="UTF-8" standalone="no"?>
<!-- Created with Inkscape (http://www.inkscape.org/) -->

<svg
   width="56.608494mm"
   height="23.64255mm"
   viewBox="0 0 56.608494 23.64255"
   version="1.1"
   id="svg1"
   inkscape:version="1.3 (0e150ed6c4, 2023-07-21)"
   sodipodi:docname="dibujo-1.svg"
   xmlns:inkscape="http://www.inkscape.org/namespaces/inkscape"
   xmlns:sodipodi="http://sodipodi.sourceforge.net/DTD/sodipodi-0.dtd"
   xmlns="http://www.w3.org/2000/svg"
   xmlns:svg="http://www.w3.org/2000/svg">
  <sodipodi:namedview
     id="namedview1"
     pagecolor="#ffffff"
     bordercolor="#000000"
     borderopacity="0.25"
     inkscape:showpageshadow="2"
     inkscape:pageopacity="0.0"
     inkscape:pagecheckerboard="0"
     inkscape:deskcolor="#d1d1d1"
     inkscape:document-units="mm"
     inkscape:zoom="0.25000001"
     inkscape:cx="-361.99999"
     inkscape:cy="-277.99999"
     inkscape:window-width="1920"
     inkscape:window-height="1017"
     inkscape:window-x="-8"
     inkscape:window-y="-8"
     inkscape:window-maximized="1"
     inkscape:current-layer="layer1" />
  <defs
     id="defs1" />
  <g
     inkscape:label="Capa 1"
     inkscape:groupmode="layer"
     id="layer1"
     transform="translate(264.04569,110.30571)">
    <path
       id="path6"
       style="fill:#ffda22;fill-opacity:1;stroke:#ffffff;stroke-width:1;stroke-opacity:1"
       d="m -240.58118,-109.80575 v 0.0662 h -16.13597 c -3.7632,0 -6.79286,3.02963 -6.79286,6.79286 v 9.056813 c 0,3.763231 -0.0357,0.113458 -0.0357,6.726721 l 0.0248,0.02481 v 9.432499 h 22.53971 c -0.004,-0.05457 -0.008,-0.109177 -0.0109,-0.163815 -9e-5,-5.096093 3.9012,-9.293497 8.71368,-9.293489 v 2.623096 c 0,3.763242 3.02962,6.792867 6.79287,6.792867 h 4.15117 c 3.76324,0 6.79286,-3.029625 6.79286,-6.792867 v -2.623096 h 6.60425 v -22.642599 h -6.60425 -17.7369 -1.50998 z" />
    <path
       id="path20"
       style="fill:#ffda22;fill-opacity:1;stroke:#ffffff;stroke-width:1;stroke-opacity:1"
       d="m -240.58118,-109.8057 v 0.0662 h -16.13597 c -3.76319,0 -6.79286,3.02964 -6.79286,6.79286 v 9.056814 c 0,3.763227 -0.0357,0.113465 -0.0357,6.726721 h 31.26734 17.7369 6.60425 V -109.8057 h -6.60425 -17.7369 -1.50998 z"
       inkscape:export-filename="start_body.svg"
       inkscape:export-xdpi="96"
       inkscape:export-ydpi="96" />
    <path
       id="path4"
       style="fill:#ffda22;fill-opacity:1;stroke:#ffffff;stroke-width:1;stroke-opacity:1"
       d="m -207.93718,-109.8057 v 22.642546 H -92.269817 V -109.8057 Z" />
    <path
       id="path7"
       style="fill:#ffda22;fill-opacity:1;stroke:#ffffff;stroke-width:1;stroke-opacity:1"
       d="m -263.54567,-87.163155 0.0248,0.02481 v 9.432499 h 22.53971 c -0.004,-0.05457 -0.008,-0.109177 -0.0109,-0.163815 -9e-5,-5.096087 3.90121,-9.293497 8.71368,-9.293489 z m 31.26734,0 v 2.623096 c 0,3.763238 3.02962,6.792867 6.79287,6.792867 h 4.15117 c 3.76323,0 6.79286,-3.029629 6.79286,-6.792867 v -2.623096 z"
       inkscape:export-filename="start_arm.svg"
       inkscape:export-xdpi="96"
       inkscape:export-ydpi="96" />
    <path
       id="path48"
       style="fill:#ffda22;fill-opacity:1;stroke:#ffffff;stroke-width:1;stroke-opacity:1"
       d="m -240.58177,-109.8057 v 0.0662 h -16.13596 c -3.7632,0 -6.79287,3.02964 -6.79287,6.79286 v 9.056818 c 0,3.763228 -0.0357,0.113465 -0.0357,6.726721 l 0.0248,0.0248 v 9.432499 h -0.009 V 25.959145 h 0.009 v 9.4325 l -0.0248,0.0248 c 0,6.61325 0.0357,2.9635 0.0357,6.72673 v 0.13229 8.92452 0.13229 c 0,3.763216 -0.0357,0.11348 -0.0357,6.726716 l 0.0248,0.0248 v 9.4325 h -0.009 V 171.18077 h 0.0294 v 9.26868 l -0.0248,0.0248 c 0,6.61325 0.0357,2.96349 0.0357,6.72672 v 9.05681 c 0,3.76323 3.02967,6.79287 6.79286,6.79287 h 16.13597 v 0.0661 h 6.79287 1.50998 17.73691 6.60425 115.667357 c 3.76322,0 6.79287,-3.02963 6.79287,-6.79287 v -9.05681 c 0,-3.76324 -3.02965,-6.79286 -6.79287,-6.79286 h -115.667357 -6.60425 -17.73691 c -4.81248,1e-5 -8.71377,-4.19741 -8.71368,-9.29349 0.003,-0.0546 0.007,-0.10922 0.0109,-0.16382 h -0.0109 V 67.516291 h -0.009 c -0.004,-0.0546 -0.008,-0.10917 -0.0109,-0.16381 -9e-5,-5.09608 3.9012,-9.29349 8.71368,-9.29349 v 2.6231 c 0,3.76323 3.02962,6.79286 6.79286,6.79286 h 4.15117 c 3.76325,0 6.79288,-3.02963 6.79288,-6.79286 v -2.6231 h 6.60425 115.667357 c 3.76321,0 6.79286,-3.02963 6.79286,-6.792866 v -9.05681 c 0,-3.76325 -3.02965,-6.79287 -6.79286,-6.79287 h -115.667357 -6.60425 -17.73691 c -4.81249,0 -8.71377,-4.19741 -8.71368,-9.29349 0.003,-0.0546 0.007,-0.10921 0.0109,-0.16381 h 0.009 V -77.705847 h -0.009 c -0.004,-0.05457 -0.008,-0.109177 -0.0109,-0.163815 -9e-5,-5.096087 3.9012,-9.293497 8.71368,-9.293489 v 2.623096 c 0,3.763238 3.02962,6.792867 6.79286,6.792867 h 4.15117 c 3.76325,0 6.79288,-3.029629 6.79288,-6.792867 v -2.623096 h 6.60425 115.667357 c 3.76321,0 6.79286,-3.029628 6.79286,-6.792867 v -9.056812 c 0,-3.76325 -3.02965,-6.79287 -6.79286,-6.79287 h -115.667357 -6.60425 -17.73691 -1.50998 z" />
  </g>
</svg>
