<?xml version="1.0" encoding="UTF-8" standalone="no"?>
<!-- Created with Inkscape (http://www.inkscape.org/) -->

<svg
   width="31.742893mm"
   height="10.457308mm"
   viewBox="0 0 31.742893 10.457308"
   version="1.1"
   id="svg1"
   inkscape:version="1.3 (0e150ed6c4, 2023-07-21)"
   sodipodi:docname="dibujo-1.svg"
   xmlns:inkscape="http://www.inkscape.org/namespaces/inkscape"
   xmlns:sodipodi="http://sodipodi.sourceforge.net/DTD/sodipodi-0.dtd"
   xmlns="http://www.w3.org/2000/svg"
   xmlns:svg="http://www.w3.org/2000/svg">
  <sodipodi:namedview
     id="namedview1"
     pagecolor="#ffffff"
     bordercolor="#000000"
     borderopacity="0.25"
     inkscape:showpageshadow="2"
     inkscape:pageopacity="0.0"
     inkscape:pagecheckerboard="0"
     inkscape:deskcolor="#d1d1d1"
     inkscape:document-units="mm"
     inkscape:zoom="5.6568548"
     inkscape:cx="-2874.9191"
     inkscape:cy="-405.61409"
     inkscape:window-width="1920"
     inkscape:window-height="1001"
     inkscape:window-x="-9"
     inkscape:window-y="-9"
     inkscape:window-maximized="1"
     inkscape:current-layer="layer1" />
  <defs
     id="defs1" />
  <g
     inkscape:label="Capa 1"
     inkscape:groupmode="layer"
     id="layer1"
     transform="translate(590.71388,-204.61619)">
    <path
       id="path45"
       style="fill:#ffda22;fill-opacity:1;stroke:#ffffff;stroke-width:1;stroke-opacity:1"
       d="m -590.2139,205.1162 v 9.4325 l 31.24254,0.0248 c -4.81248,1e-5 -8.71378,-4.1974 -8.71369,-9.29349 0.003,-0.0546 0.007,-0.10921 0.0109,-0.16381 z"
       sodipodi:nodetypes="cccccc" />
    <path
       id="path48"
       style="fill:#ffda22;fill-opacity:1;stroke:#ffffff;stroke-width:1;stroke-opacity:1"
       d="m -567.29457,-75.78836 v 0.0662 h -16.13596 c -3.7632,0 -6.79287,3.02964 -6.79287,6.79286 v 9.056811 c 0,3.763228 -0.0357,0.113465 -0.0357,6.726721 l 0.0248,0.0248 v 9.432499 h -0.009 V 59.976478 h 0.009 v 9.432501 l -0.0248,0.0248 c 0,6.61325 0.0357,2.963499 0.0357,6.72673 v 0.13229 8.92452 0.13229 c 0,3.76322 -0.0357,0.113479 -0.0357,6.72671 l 0.0248,0.0248 v 9.432501 h -0.009 v 103.66449 h 0.0294 v 9.26868 l -0.0248,0.0248 c 0,6.61325 0.0357,2.96349 0.0357,6.72672 v 9.05681 c 0,3.76323 3.02967,6.79287 6.79286,6.79287 h 16.13597 v 0.0661 h 6.79287 1.50998 17.73691 6.60425 115.66736 c 3.76322,0 6.79287,-3.02963 6.79287,-6.79287 v -9.05681 c 0,-3.76324 -3.02965,-6.79286 -6.79287,-6.79286 h -115.66736 -6.60425 -17.73691 c -4.81248,1e-5 -8.71377,-4.19741 -8.71368,-9.29349 0.003,-0.0546 0.007,-0.10922 0.0109,-0.16382 h -0.0109 V 101.53362 h -0.009 c -0.004,-0.0546 -0.008,-0.10917 -0.0109,-0.16381 -9e-5,-5.096071 3.9012,-9.293491 8.71368,-9.293491 v 2.6231 c 0,3.763229 3.02962,6.792861 6.79286,6.792861 h 4.15117 c 3.76325,0 6.79288,-3.029632 6.79288,-6.792851 v -2.6231 h 6.60425 115.66736 c 3.76321,0 6.79286,-3.02963 6.79286,-6.79287 v -9.05681 c 0,-3.76325 -3.02965,-6.79287 -6.79286,-6.79287 h -115.66736 -6.60425 -17.73691 c -4.81249,0 -8.71377,-4.19741 -8.71368,-9.293491 0.003,-0.0546 0.007,-0.10921 0.0109,-0.16381 h 0.009 V -43.688514 h -0.009 c -0.004,-0.05457 -0.008,-0.109177 -0.0109,-0.163815 -9e-5,-5.096087 3.9012,-9.293497 8.71368,-9.293489 v 2.623097 c 0,3.763238 3.02962,6.792867 6.79286,6.792867 h 4.15117 c 3.76325,0 6.79288,-3.029629 6.79288,-6.792867 v -2.623097 h 6.60425 115.66736 c 3.76321,0 6.79286,-3.029628 6.79286,-6.792867 v -9.056805 c 0,-3.76325 -3.02965,-6.79287 -6.79286,-6.79287 h -115.66736 -6.60425 -17.73691 -1.50998 z" />
  </g>
</svg>
