<?xml version="1.0" encoding="UTF-8" standalone="no"?>
<!-- Created with Inkscape (http://www.inkscape.org/) -->

<svg
   width="30.891718mm"
   height="12.387423mm"
   viewBox="0 0 30.891718 12.387423"
   version="1.1"
   id="svg1"
   inkscape:version="1.3 (0e150ed6c4, 2023-07-21)"
   sodipodi:docname="dibujo-1.svg"
   xmlns:inkscape="http://www.inkscape.org/namespaces/inkscape"
   xmlns:sodipodi="http://sodipodi.sourceforge.net/DTD/sodipodi-0.dtd"
   xmlns="http://www.w3.org/2000/svg"
   xmlns:svg="http://www.w3.org/2000/svg">
  <sodipodi:namedview
     id="namedview1"
     pagecolor="#ffffff"
     bordercolor="#000000"
     borderopacity="0.25"
     inkscape:showpageshadow="2"
     inkscape:pageopacity="0.0"
     inkscape:pagecheckerboard="0"
     inkscape:deskcolor="#d1d1d1"
     inkscape:document-units="mm"
     inkscape:zoom="1.0000001"
     inkscape:cx="-2614.9999"
     inkscape:cy="-263.49999"
     inkscape:window-width="1920"
     inkscape:window-height="1001"
     inkscape:window-x="-9"
     inkscape:window-y="-9"
     inkscape:window-maximized="1"
     inkscape:current-layer="layer1" />
  <defs
     id="defs1" />
  <g
     inkscape:label="Capa 1"
     inkscape:groupmode="layer"
     id="layer1"
     transform="translate(772.84139,113.18161)">
    <path
       id="path20"
       style="fill:#ffda22;fill-opacity:1;stroke:#ffffff;stroke-width:1;stroke-opacity:1"
       d="m -746.30163,-112.68161 v 2.18902 c 0,3.7632 -3.02967,6.79286 -6.79287,6.79286 h -4.15117 c -3.76325,0 -6.79287,-3.02966 -6.79287,-6.79286 v -2.12287 h -1.50998 c -3.76317,0 -6.79287,3.02966 -6.79287,6.79287 v 4.5284 h 29.89172 v -11.38742 h -0.17002 z"
       inkscape:export-filename="src\main\path20.svg"
       inkscape:export-xdpi="96"
       inkscape:export-ydpi="96" />
    <path
       id="path36"
       style="fill:#ffda22;fill-opacity:1;stroke:#ffffff;stroke-width:1;stroke-opacity:1"
       d="m -746.30163,-112.68161 v 2.18902 c 0,3.7632 -3.02966,6.79287 -6.79287,6.79287 h -4.15117 c -3.75975,0 -6.78673,-3.02419 -6.79235,-6.78254 v -2.1332 h -5.2e-4 -1.50998 c -0.4704,0 -0.92954,0.0473 -1.37253,0.13746 -0.44299,0.0902 -0.86979,0.22288 -1.2764,0.39429 -0.40662,0.17142 -0.79267,0.38162 -1.15394,0.62528 -0.36127,0.24367 -0.69763,0.52091 -1.00459,0.82786 -0.30695,0.30695 -0.5847,0.64332 -0.82837,1.00459 -0.24367,0.36127 -0.45335,0.74732 -0.62477,1.15394 -0.17142,0.40661 -0.30462,0.83393 -0.39481,1.27692 -0.0902,0.44299 -0.13746,0.90213 -0.13746,1.37253 v 4.5284 4.528407 c 0,3.76322 -0.0357,0.11349 -0.0357,6.726722 l 0.0248,0.0248 v 9.432499 h -0.009 V 23.083233 h 0.009 v 9.432499 l -0.0248,0.02481 c 0,6.613223 0.0357,2.963515 0.0357,6.726721 v 0.132291 8.92452 0.132292 c 0,3.763221 -0.0357,0.113498 -0.0357,6.726721 l 0.0248,0.0248 v 9.4325 h -0.009 V 168.30486 h 0.0294 v 9.26869 l -0.0243,0.0243 h -5.1e-4 v 5.1e-4 0.002 c 1e-5,6.31741 0.0317,3.5146 0.0346,6.52364 6e-5,0.0999 5.2e-4,0.0888 5.2e-4,0.20153 v 9.05681 c 0,0.004 0.001,0.007 0.001,0.0114 7.5e-4,0.46261 0.0473,0.91423 0.13539,1.35031 0.002,0.008 0.003,0.0158 0.005,0.0238 0.0892,0.4339 0.21981,0.85214 0.38706,1.25109 0.004,0.009 0.007,0.0168 0.0109,0.0253 0.16846,0.3973 0.37374,0.77469 0.61133,1.12861 0.005,0.008 0.0106,0.0162 0.016,0.0243 0.24033,0.3547 0.51292,0.68539 0.81442,0.98754 0.002,0.002 0.003,0.004 0.005,0.005 l 0.006,0.006 c 0.30332,0.3026 0.63543,0.57658 0.99167,0.81752 0.005,0.003 0.01,0.007 0.0145,0.01 0.35655,0.23982 0.73727,0.44642 1.13792,0.61598 0.006,0.003 0.0121,0.005 0.0181,0.008 0.40077,0.16826 0.82122,0.29914 1.25729,0.38861 0.007,0.001 0.0134,0.003 0.0202,0.004 0.43654,0.0882 0.88871,0.13471 1.35185,0.1354 0.004,0 0.007,0.001 0.0103,0.001 h 16.13596 v 0.0656 h 8.30286 v 2.55695 c 0,3.76321 3.02964,6.79286 6.79286,6.79286 h 4.15117 c 3.76321,0 6.79287,-3.02965 6.79287,-6.79286 v -2.55695 h 6.60424 115.66736 c 3.7632,0 6.79287,-3.02963 6.79287,-6.79287 v -9.05681 c 0,-3.76322 -3.02967,-6.79287 -6.79287,-6.79287 h -115.66736 -24.34114 c -4.81248,10e-6 -8.71377,-4.19743 -8.71368,-9.29349 0.003,-0.0546 0.007,-0.10921 0.0114,-0.16381 h -0.0114 V 64.640387 h -0.009 c -0.004,-0.0546 -0.008,-0.10918 -0.0109,-0.16382 -9e-5,-5.09606 3.90123,-9.29348 8.71368,-9.29348 v 2.6231 c 0,3.76321 3.02963,6.79286 6.79287,6.79286 h 4.15117 c 3.76322,0 6.79286,-3.02966 6.79286,-6.79286 v -2.6231 h 6.60425 115.66736 c 3.76319,0 6.79287,-3.02964 6.79287,-6.792872 v -9.056811 c 0,-3.763247 -3.02968,-6.792867 -6.79287,-6.792867 h -115.66736 -6.60425 -17.7369 c -4.81246,0 -8.71377,-4.197415 -8.71368,-9.29349 0.003,-0.0546 0.007,-0.109214 0.0109,-0.163814 h 0.009 V -80.581758 h -0.009 c -0.004,-0.05457 -0.008,-0.109176 -0.0109,-0.163814 -9e-5,-5.096072 3.90123,-9.293497 8.71368,-9.293489 v 2.623095 c 0,3.763227 3.02963,6.792867 6.79287,6.792867 h 4.15117 c 3.76322,0 6.79286,-3.02964 6.79286,-6.792867 v -2.623095 h 6.60425 115.66736 c 3.76319,0 6.79287,-3.029642 6.79287,-6.792872 v -9.056807 c 0,-3.76324 -3.02968,-6.79287 -6.79287,-6.79287 h -115.66736 -0.001 -6.60322 -10e-4 -16.32407 -1.41283 -1.50999 z" />
  </g>
</svg>
